<?xml version="1.0" encoding="utf-8"?>
<!-- Generator: Adobe Illustrator 25.3.1, SVG Export Plug-In . SVG Version: 6.00 Build 0)  -->
<svg version="1.1" xmlns="http://www.w3.org/2000/svg" xmlns:xlink="http://www.w3.org/1999/xlink" x="0px" y="0px"
	 viewBox="0 0 1784 947.28" style="enable-background:new 0 0 1784 947.28;" xml:space="preserve">
<style type="text/css">
	.st0{fill:url(#SVGID_1_);}
	.st1{fill:#1D1F25;}
	.st2{fill:#DFEBDD;}
	.st3{fill:#909098;}
	.st4{fill:#B8BABE;}
	.st5{opacity:0.97;}
	.st6{fill:none;stroke:#B0B2B2;stroke-width:0.25;stroke-miterlimit:10;}
	.st7{fill:none;stroke:#B0B2B2;stroke-width:0.75;stroke-miterlimit:10;}
	.st8{fill:none;stroke:#B0B2B2;stroke-width:0.743;stroke-miterlimit:10;}
	.st9{fill:none;stroke:#B0B2B2;stroke-width:0.7359;stroke-miterlimit:10;}
	.st10{fill:none;stroke:#B0B2B2;stroke-width:0.7289;stroke-miterlimit:10;}
	.st11{fill:none;stroke:#B0B2B2;stroke-width:0.7218;stroke-miterlimit:10;}
	.st12{fill:none;stroke:#B0B2B2;stroke-width:0.7148;stroke-miterlimit:10;}
	.st13{fill:none;stroke:#B0B2B2;stroke-width:0.7077;stroke-miterlimit:10;}
	.st14{fill:none;stroke:#B0B2B2;stroke-width:0.7007;stroke-miterlimit:10;}
	.st15{fill:none;stroke:#B0B2B2;stroke-width:0.6937;stroke-miterlimit:10;}
	.st16{fill:none;stroke:#B0B2B2;stroke-width:0.6866;stroke-miterlimit:10;}
	.st17{fill:none;stroke:#B0B2B2;stroke-width:0.6796;stroke-miterlimit:10;}
	.st18{fill:none;stroke:#B0B2B2;stroke-width:0.6725;stroke-miterlimit:10;}
	.st19{fill:none;stroke:#B0B2B2;stroke-width:0.6655;stroke-miterlimit:10;}
	.st20{fill:none;stroke:#B0B2B2;stroke-width:0.6585;stroke-miterlimit:10;}
	.st21{fill:none;stroke:#B0B2B2;stroke-width:0.6514;stroke-miterlimit:10;}
	.st22{fill:none;stroke:#B0B2B2;stroke-width:0.6444;stroke-miterlimit:10;}
	.st23{fill:none;stroke:#B0B2B2;stroke-width:0.6373;stroke-miterlimit:10;}
	.st24{fill:none;stroke:#B0B2B2;stroke-width:0.6303;stroke-miterlimit:10;}
	.st25{fill:none;stroke:#B0B2B2;stroke-width:0.6232;stroke-miterlimit:10;}
	.st26{fill:none;stroke:#B0B2B2;stroke-width:0.6162;stroke-miterlimit:10;}
	.st27{fill:none;stroke:#B0B2B2;stroke-width:0.6092;stroke-miterlimit:10;}
	.st28{fill:none;stroke:#B0B2B2;stroke-width:0.6021;stroke-miterlimit:10;}
	.st29{fill:none;stroke:#B0B2B2;stroke-width:0.5951;stroke-miterlimit:10;}
	.st30{fill:none;stroke:#B0B2B2;stroke-width:0.588;stroke-miterlimit:10;}
	.st31{fill:none;stroke:#B0B2B2;stroke-width:0.581;stroke-miterlimit:10;}
	.st32{fill:none;stroke:#B0B2B2;stroke-width:0.5739;stroke-miterlimit:10;}
	.st33{fill:none;stroke:#B0B2B2;stroke-width:0.5669;stroke-miterlimit:10;}
	.st34{fill:none;stroke:#B0B2B2;stroke-width:0.5599;stroke-miterlimit:10;}
	.st35{fill:none;stroke:#B0B2B2;stroke-width:0.5528;stroke-miterlimit:10;}
	.st36{fill:none;stroke:#B0B2B2;stroke-width:0.5458;stroke-miterlimit:10;}
	.st37{fill:none;stroke:#B0B2B2;stroke-width:0.5387;stroke-miterlimit:10;}
	.st38{fill:none;stroke:#B0B2B2;stroke-width:0.5317;stroke-miterlimit:10;}
	.st39{fill:none;stroke:#B0B2B2;stroke-width:0.5246;stroke-miterlimit:10;}
	.st40{fill:none;stroke:#B0B2B2;stroke-width:0.5176;stroke-miterlimit:10;}
	.st41{fill:none;stroke:#B0B2B2;stroke-width:0.5106;stroke-miterlimit:10;}
	.st42{fill:none;stroke:#B0B2B2;stroke-width:0.5035;stroke-miterlimit:10;}
	.st43{fill:none;stroke:#B0B2B2;stroke-width:0.4965;stroke-miterlimit:10;}
	.st44{fill:none;stroke:#B0B2B2;stroke-width:0.4894;stroke-miterlimit:10;}
	.st45{fill:none;stroke:#B0B2B2;stroke-width:0.4824;stroke-miterlimit:10;}
	.st46{fill:none;stroke:#B0B2B2;stroke-width:0.4754;stroke-miterlimit:10;}
	.st47{fill:none;stroke:#B0B2B2;stroke-width:0.4683;stroke-miterlimit:10;}
	.st48{fill:none;stroke:#B0B2B2;stroke-width:0.4613;stroke-miterlimit:10;}
	.st49{fill:none;stroke:#B0B2B2;stroke-width:0.4542;stroke-miterlimit:10;}
	.st50{fill:none;stroke:#B0B2B2;stroke-width:0.4472;stroke-miterlimit:10;}
	.st51{fill:none;stroke:#B0B2B2;stroke-width:0.4401;stroke-miterlimit:10;}
	.st52{fill:none;stroke:#B0B2B2;stroke-width:0.4331;stroke-miterlimit:10;}
	.st53{fill:none;stroke:#B0B2B2;stroke-width:0.4261;stroke-miterlimit:10;}
	.st54{fill:none;stroke:#B0B2B2;stroke-width:0.419;stroke-miterlimit:10;}
	.st55{fill:none;stroke:#B0B2B2;stroke-width:0.412;stroke-miterlimit:10;}
	.st56{fill:none;stroke:#B0B2B2;stroke-width:0.4049;stroke-miterlimit:10;}
	.st57{fill:none;stroke:#B0B2B2;stroke-width:0.3979;stroke-miterlimit:10;}
	.st58{fill:none;stroke:#B0B2B2;stroke-width:0.3908;stroke-miterlimit:10;}
	.st59{fill:none;stroke:#B0B2B2;stroke-width:0.3838;stroke-miterlimit:10;}
	.st60{fill:none;stroke:#B0B2B2;stroke-width:0.3768;stroke-miterlimit:10;}
	.st61{fill:none;stroke:#B0B2B2;stroke-width:0.3697;stroke-miterlimit:10;}
	.st62{fill:none;stroke:#B0B2B2;stroke-width:0.3627;stroke-miterlimit:10;}
	.st63{fill:none;stroke:#B0B2B2;stroke-width:0.3556;stroke-miterlimit:10;}
	.st64{fill:none;stroke:#B0B2B2;stroke-width:0.3486;stroke-miterlimit:10;}
	.st65{fill:none;stroke:#B0B2B2;stroke-width:0.3415;stroke-miterlimit:10;}
	.st66{fill:none;stroke:#B0B2B2;stroke-width:0.3345;stroke-miterlimit:10;}
	.st67{fill:none;stroke:#B0B2B2;stroke-width:0.3275;stroke-miterlimit:10;}
	.st68{fill:none;stroke:#B0B2B2;stroke-width:0.3204;stroke-miterlimit:10;}
	.st69{fill:none;stroke:#B0B2B2;stroke-width:0.3134;stroke-miterlimit:10;}
	.st70{fill:none;stroke:#B0B2B2;stroke-width:0.3063;stroke-miterlimit:10;}
	.st71{fill:none;stroke:#B0B2B2;stroke-width:0.2993;stroke-miterlimit:10;}
	.st72{fill:none;stroke:#B0B2B2;stroke-width:0.2923;stroke-miterlimit:10;}
	.st73{fill:none;stroke:#B0B2B2;stroke-width:0.2852;stroke-miterlimit:10;}
	.st74{fill:none;stroke:#B0B2B2;stroke-width:0.2782;stroke-miterlimit:10;}
	.st75{fill:none;stroke:#B0B2B2;stroke-width:0.2711;stroke-miterlimit:10;}
	.st76{fill:none;stroke:#B0B2B2;stroke-width:0.2641;stroke-miterlimit:10;}
	.st77{fill:none;stroke:#B0B2B2;stroke-width:0.257;stroke-miterlimit:10;}
</style>
<g id="Layer_1">
	<linearGradient id="SVGID_1_" gradientUnits="userSpaceOnUse" x1="1748.8947" y1="56.1518" x2="55.5613" y2="878.8185">
		<stop  offset="1.385225e-07" style="stop-color:#000000"/>
		<stop  offset="0.611" style="stop-color:#000B16"/>
		<stop  offset="1" style="stop-color:#001426"/>
	</linearGradient>
	<rect x="-0.5" y="-0.17" class="st0" width="1784.92" height="945.29"/>
	<rect x="-2.17" y="877.12" class="st1" width="1784.28" height="70"/>
	<g>
		<g>
			<g>
				<path class="st2" d="M654.59,896.56h5.2c4.09,0,7.46,1.08,10.11,3.2c2.67,2.14,4,5.19,4,9.15c0,4.08-1.32,7.2-3.96,9.36
					c-2.65,2.17-6.06,3.24-10.24,3.24h-5.1V896.56z M657.72,918.68h1.1c1.62,0,3.16-0.16,4.6-0.48c1.45-0.33,2.71-0.86,3.79-1.62
					c1.07-0.78,1.94-1.77,2.58-2.99c0.64-1.22,0.97-2.74,0.97-4.55c0-1.79-0.32-3.32-0.95-4.59c-0.63-1.28-1.51-2.26-2.66-2.97
					c-1.12-0.72-2.38-1.25-3.75-1.58c-1.37-0.35-2.9-0.5-4.59-0.5h-1.1V918.68z"/>
				<path class="st2" d="M678.5,914.28c0.04,1.38,0.49,2.59,1.33,3.61c0.87,1.02,1.99,1.51,3.36,1.51c1.09,0,1.98-0.25,2.69-0.75
					c0.7-0.51,1.36-1.25,1.98-2.26l2.54,1.43c-0.73,1.32-1.75,2.35-3.03,3.12c-1.28,0.74-2.68,1.11-4.21,1.11
					c-2.34,0-4.2-0.76-5.6-2.31c-1.38-1.59-2.07-3.51-2.07-5.83c0-2.43,0.66-4.45,1.98-6.01c1.29-1.56,3.17-2.31,5.64-2.31
					c2.41,0,4.21,0.75,5.44,2.31c1.24,1.54,1.87,3.52,1.87,5.93v0.46H678.5z M687.4,912.03c-0.19-1.2-0.63-2.15-1.39-2.83
					c-0.75-0.7-1.72-1.05-2.92-1.05c-0.57,0-1.12,0.08-1.62,0.27c-0.5,0.2-0.94,0.48-1.33,0.82c-0.38,0.36-0.71,0.77-0.98,1.25
					c-0.25,0.49-0.42,0.99-0.5,1.55H687.4z"/>
				<path class="st2" d="M699.24,909.58c-0.45-0.92-1.11-1.37-2-1.37c-0.42,0-0.8,0.15-1.13,0.45c-0.34,0.3-0.5,0.67-0.5,1.08
					c0,0.4,0.13,0.75,0.38,1.02c0.25,0.28,0.6,0.53,1.05,0.78c0.29,0.13,0.51,0.25,0.67,0.3c0.15,0.09,0.4,0.21,0.77,0.37
					c0.17,0.07,0.33,0.16,0.46,0.2c0.13,0.04,0.23,0.08,0.3,0.12c1.1,0.51,1.99,1.09,2.64,1.76c0.64,0.65,0.97,1.55,0.97,2.64
					c0,1.46-0.54,2.69-1.6,3.67c-1.04,0.98-2.31,1.46-3.77,1.46c-0.61,0-1.19-0.08-1.74-0.25c-0.55-0.15-1.07-0.39-1.56-0.69
					c-0.48-0.3-0.89-0.66-1.26-1.09c-0.37-0.44-0.65-0.92-0.85-1.43l2.57-1.15c0.73,1.32,1.68,1.97,2.84,1.97
					c0.47,0,0.9-0.12,1.29-0.38c0.41-0.25,0.71-0.57,0.89-0.95c0.19-0.4,0.23-0.81,0.12-1.28c-0.11-0.43-0.45-0.87-1.03-1.27
					l-2.95-1.55c-0.5-0.26-0.95-0.53-1.33-0.8c-0.38-0.27-0.69-0.55-0.93-0.84c-0.25-0.3-0.43-0.63-0.56-0.98
					c-0.12-0.38-0.18-0.79-0.18-1.28c0-1.26,0.44-2.32,1.34-3.19c0.89-0.88,1.97-1.31,3.26-1.31c1.96,0,3.38,0.88,4.27,2.71
					L699.24,909.58z"/>
				<path class="st2" d="M710.01,898.94c0,0.55-0.2,1.03-0.6,1.42c-0.4,0.4-0.89,0.6-1.46,0.6c-0.58,0-1.07-0.19-1.47-0.6
					c-0.4-0.39-0.6-0.87-0.6-1.42c0-0.58,0.2-1.07,0.6-1.48c0.4-0.41,0.89-0.6,1.47-0.6c0.57,0,1.06,0.19,1.46,0.6
					C709.81,897.87,710.01,898.36,710.01,898.94z M709.45,921.52h-3.01v-15.49h3.01V921.52z"/>
				<path class="st2" d="M728.86,921.23c0,2.9-0.55,5.17-1.67,6.79c-1.12,1.58-3.1,2.37-5.94,2.37c-2.2,0-4-0.63-5.4-1.88
					c-1.38-1.25-2.09-2.96-2.13-5.13h2.99c0,1.39,0.44,2.46,1.28,3.24c0.87,0.75,2,1.13,3.4,1.13c1.71,0,2.88-0.49,3.52-1.5
					c0.63-1,0.94-2.38,0.94-4.2v-2.95h-0.07c-0.62,0.95-1.39,1.67-2.31,2.18c-0.92,0.52-1.91,0.77-2.98,0.77
					c-2.32,0-4.15-0.8-5.48-2.41c-1.33-1.62-1.98-3.59-1.98-5.96c0-2.24,0.67-4.12,2.02-5.69c1.36-1.62,3.12-2.41,5.31-2.41
					c2.28,0,4.11,1.04,5.42,3.08h0.07v-2.63h3V921.23z M720.96,919.4c1.57,0,2.8-0.54,3.69-1.61c0.91-1.11,1.37-2.45,1.37-4.01
					c0-1.55-0.46-2.86-1.37-3.95c-0.88-1.07-2.12-1.62-3.69-1.62c-1.5,0-2.7,0.55-3.61,1.67c-0.89,1.08-1.34,2.38-1.34,3.9
					c0,1.56,0.45,2.88,1.34,3.97C718.27,918.86,719.47,919.4,720.96,919.4z"/>
				<path class="st2" d="M735.76,908.11h0.07c0.43-0.83,1.09-1.44,1.93-1.88c0.85-0.45,1.77-0.65,2.77-0.65
					c1.02,0,1.88,0.14,2.6,0.45c0.7,0.3,1.28,0.74,1.71,1.32c0.44,0.58,0.75,1.27,0.94,2.1c0.19,0.82,0.28,1.78,0.28,2.82v9.24h-3
					v-8.87c0-1.53-0.23-2.64-0.66-3.34c-0.45-0.73-1.37-1.1-2.77-1.1c-0.52,0-0.95,0.05-1.3,0.15c-0.36,0.09-0.67,0.23-0.94,0.42
					c-0.27,0.19-0.49,0.41-0.67,0.65c-0.17,0.25-0.35,0.51-0.5,0.81c-0.07,0.14-0.13,0.35-0.19,0.59c-0.05,0.24-0.1,0.49-0.14,0.73
					c-0.05,0.26-0.09,0.51-0.1,0.77c-0.02,0.26-0.03,0.46-0.03,0.61v1.45v7.12h-3v-15.49h3V908.11z"/>
				<path class="st2" d="M759.61,892.79h3v15.82h0.07c1.38-2.03,3.19-3.03,5.44-3.03c2.17,0,3.95,0.8,5.31,2.41
					c1.35,1.56,2.03,3.45,2.03,5.69c0,2.37-0.67,4.34-2,5.96c-1.34,1.61-3.17,2.41-5.47,2.41c-1.06,0-2.06-0.25-2.99-0.77
					c-0.92-0.51-1.69-1.23-2.31-2.18h-0.07v2.42h-3V892.79z M767.38,919.4c1.58,0,2.81-0.54,3.7-1.61c0.91-1.11,1.36-2.45,1.36-4.01
					c0-1.55-0.45-2.86-1.36-3.95c-0.89-1.07-2.12-1.62-3.7-1.62c-1.49,0-2.7,0.55-3.61,1.67c-0.89,1.08-1.34,2.38-1.34,3.9
					c0,1.56,0.45,2.88,1.34,3.97C764.68,918.86,765.89,919.4,767.38,919.4z"/>
				<path class="st2" d="M775.87,906.03h3.5l5.27,9.83l4.91-9.83h3.37l-12.65,24.37h-3.4l6.15-11.53L775.87,906.03z"/>
				<path class="st2" d="M808.06,915.25l-2.87,6.26h-3.37l12-26.01l12.01,26.01h-3.37l-2.88-6.26H808.06z M813.83,902.32
					l-4.47,10.11h8.94L813.83,902.32z"/>
				<path class="st2" d="M830.73,921.52h-3v-28.73h3V921.52z"/>
				<path class="st2" d="M838.13,921.52h-2.99v-28.73h2.99V921.52z"/>
				<path class="st2" d="M849.54,909.68v2.47h-7.29v-2.47H849.54z"/>
				<path class="st2" d="M861.22,895.8c-0.94-0.43-1.61-0.62-2-0.62c-0.64,0-1.12,0.18-1.4,0.6c-0.29,0.4-0.48,0.9-0.6,1.5
					c-0.06,0.45-0.1,0.79-0.12,1.05c-0.01,0.24-0.02,0.6-0.02,1.03v6.66h4.14v2.78h-4.14v12.71h-2.99v-12.71h-1.37v-2.78h1.37v-7.55
					c0-4.06,1.67-6.09,5.03-6.09c0.74,0,1.43,0.13,2.11,0.4V895.8z"/>
				<path class="st2" d="M865.86,908.55h0.09c0.39-0.93,0.94-1.66,1.68-2.18c0.74-0.55,1.6-0.79,2.59-0.79
					c0.83,0,1.65,0.24,2.47,0.75l-1.37,2.72c-0.48-0.42-1.1-0.63-1.83-0.63c-1.53,0-2.56,0.62-3.07,1.84
					c-0.22,0.58-0.38,1.17-0.46,1.72c-0.07,0.55-0.11,1.2-0.11,1.92v7.62h-3v-15.49h3V908.55z"/>
				<path class="st2" d="M876.16,914.28c0.05,1.38,0.48,2.59,1.33,3.61c0.88,1.02,1.99,1.51,3.37,1.51c1.09,0,1.99-0.25,2.69-0.75
					c0.7-0.51,1.36-1.25,1.98-2.26l2.53,1.43c-0.73,1.32-1.73,2.35-3.02,3.12c-1.27,0.74-2.68,1.11-4.22,1.11
					c-2.32,0-4.2-0.76-5.6-2.31c-1.37-1.59-2.07-3.51-2.07-5.83c0-2.43,0.65-4.45,1.98-6.01c1.28-1.56,3.16-2.31,5.62-2.31
					c2.42,0,4.23,0.75,5.45,2.31c1.25,1.54,1.86,3.52,1.86,5.93v0.46H876.16z M885.06,912.03c-0.18-1.2-0.64-2.15-1.39-2.83
					c-0.74-0.7-1.72-1.05-2.92-1.05c-0.57,0-1.12,0.08-1.61,0.27c-0.5,0.2-0.95,0.48-1.34,0.82c-0.39,0.36-0.71,0.77-0.97,1.25
					c-0.24,0.49-0.43,0.99-0.52,1.55H885.06z"/>
				<path class="st2" d="M892.43,914.28c0.05,1.38,0.5,2.59,1.34,3.61c0.86,1.02,1.98,1.51,3.36,1.51c1.1,0,1.99-0.25,2.69-0.75
					c0.7-0.51,1.37-1.25,1.98-2.26l2.53,1.43c-0.73,1.32-1.73,2.35-3,3.12c-1.28,0.74-2.69,1.11-4.23,1.11
					c-2.33,0-4.2-0.76-5.6-2.31c-1.38-1.59-2.07-3.51-2.07-5.83c0-2.43,0.65-4.45,1.97-6.01c1.29-1.56,3.16-2.31,5.65-2.31
					c2.39,0,4.21,0.75,5.42,2.31c1.25,1.54,1.86,3.52,1.86,5.93v0.46H892.43z M901.35,912.03c-0.18-1.2-0.65-2.15-1.39-2.83
					c-0.75-0.7-1.73-1.05-2.91-1.05c-0.59,0-1.13,0.08-1.63,0.27c-0.5,0.2-0.95,0.48-1.33,0.82c-0.39,0.36-0.73,0.77-0.97,1.25
					c-0.26,0.49-0.43,0.99-0.52,1.55H901.35z"/>
				<path class="st2" d="M914.04,909.68v2.47h-7.29v-2.47H914.04z"/>
				<path class="st2" d="M929.62,919.1h-0.05c-0.63,0.95-1.4,1.67-2.33,2.18c-0.92,0.52-1.92,0.77-2.98,0.77
					c-2.33,0-4.14-0.8-5.47-2.41c-1.34-1.62-2-3.59-2-5.96c0-2.24,0.67-4.12,2.03-5.69c1.36-1.62,3.12-2.41,5.31-2.41
					c2.24,0,4.05,1,5.44,3.03h0.05v-15.82h3v28.73h-3V919.1z M924.71,919.4c1.59,0,2.83-0.54,3.71-1.61
					c0.9-1.11,1.37-2.45,1.37-4.01c0-1.55-0.46-2.86-1.37-3.95c-0.88-1.07-2.12-1.62-3.71-1.62c-1.48,0-2.68,0.55-3.59,1.67
					c-0.89,1.08-1.34,2.38-1.34,3.9c0,1.56,0.45,2.88,1.34,3.97C922.03,918.86,923.23,919.4,924.71,919.4z"/>
				<path class="st2" d="M937.52,907.94c1.62-1.58,3.61-2.37,5.94-2.37c2.33,0,4.31,0.79,5.9,2.37c1.63,1.59,2.44,3.55,2.44,5.87
					c0,2.32-0.81,4.27-2.44,5.86c-1.58,1.59-3.57,2.37-5.9,2.37c-2.34,0-4.32-0.78-5.94-2.37c-1.59-1.59-2.39-3.54-2.39-5.86
					C935.13,911.5,935.93,909.54,937.52,907.94z M938.12,913.81c0,1.43,0.53,2.7,1.58,3.81c1.02,1.06,2.28,1.58,3.77,1.58
					c1.45,0,2.72-0.53,3.76-1.58c1.05-1.1,1.58-2.37,1.58-3.81c0-1.46-0.52-2.73-1.58-3.81c-1.04-1.07-2.31-1.59-3.76-1.59
					c-1.49,0-2.75,0.52-3.77,1.59C938.65,911.09,938.12,912.36,938.12,913.81z"/>
				<path class="st2" d="M959.87,915.89l4.6-10.73l4.57,10.73l4.53-9.86h3.41l-7.94,16.02l-4.57-10.35l-4.6,10.35l-7.93-16.02h3.4
					L959.87,915.89z"/>
				<path class="st2" d="M981.48,908.11h0.06c0.44-0.83,1.1-1.44,1.95-1.88c0.83-0.45,1.77-0.65,2.76-0.65
					c1.03,0,1.89,0.14,2.6,0.45c0.71,0.3,1.29,0.74,1.71,1.32c0.46,0.58,0.76,1.27,0.95,2.1c0.19,0.82,0.27,1.78,0.27,2.82v9.24h-3
					v-8.87c0-1.53-0.21-2.64-0.66-3.34c-0.46-0.73-1.37-1.1-2.78-1.1c-0.51,0-0.94,0.05-1.31,0.15c-0.34,0.09-0.66,0.23-0.92,0.42
					c-0.27,0.19-0.5,0.41-0.67,0.65c-0.18,0.25-0.33,0.51-0.5,0.81c-0.05,0.14-0.12,0.35-0.17,0.59c-0.06,0.24-0.1,0.49-0.16,0.73
					c-0.03,0.26-0.07,0.51-0.1,0.77c-0.01,0.26-0.03,0.46-0.03,0.61v1.45v7.12h-3v-15.49h3V908.11z"/>
				<path class="st2" d="M999.05,921.52h-3v-28.73h3V921.52z"/>
				<path class="st2" d="M1004.32,907.94c1.63-1.58,3.61-2.37,5.94-2.37c2.32,0,4.3,0.79,5.9,2.37c1.62,1.59,2.43,3.55,2.43,5.87
					c0,2.32-0.81,4.27-2.43,5.86c-1.6,1.59-3.58,2.37-5.9,2.37c-2.33,0-4.31-0.78-5.94-2.37c-1.61-1.59-2.4-3.54-2.4-5.86
					C1001.92,911.5,1002.72,909.54,1004.32,907.94z M1004.92,913.81c0,1.43,0.52,2.7,1.57,3.81c1.02,1.06,2.28,1.58,3.77,1.58
					c1.47,0,2.72-0.53,3.76-1.58c1.06-1.1,1.58-2.37,1.58-3.81c0-1.46-0.53-2.73-1.58-3.81c-1.04-1.07-2.28-1.59-3.76-1.59
					c-1.49,0-2.75,0.52-3.77,1.59C1005.45,911.09,1004.92,912.36,1004.92,913.81z"/>
				<path class="st2" d="M1035.97,921.52h-3v-2.42h-0.07c-1.33,1.98-3.1,2.95-5.3,2.95c-2.29,0-4.11-0.8-5.48-2.41
					c-1.33-1.62-1.98-3.59-1.98-5.96c0-2.24,0.68-4.12,2.02-5.69c1.36-1.62,3.14-2.41,5.33-2.41c2.23,0,4.04,1,5.41,3.03h0.07v-2.57
					h3V921.52z M1028.07,919.4c1.57,0,2.81-0.54,3.71-1.61c0.9-1.11,1.35-2.45,1.35-4.01c0-1.55-0.45-2.86-1.35-3.95
					c-0.9-1.07-2.14-1.62-3.71-1.62c-1.49,0-2.7,0.55-3.6,1.67c-0.89,1.08-1.33,2.38-1.33,3.9c0,1.56,0.44,2.88,1.33,3.97
					C1025.37,918.86,1026.58,919.4,1028.07,919.4z"/>
				<path class="st2" d="M1051.52,919.1h-0.07c-0.62,0.95-1.4,1.67-2.32,2.18c-0.91,0.52-1.91,0.77-2.98,0.77
					c-2.32,0-4.13-0.8-5.47-2.41c-1.34-1.62-1.99-3.59-1.99-5.96c0-2.24,0.67-4.12,2.04-5.69c1.35-1.62,3.11-2.41,5.29-2.41
					c2.25,0,4.06,1,5.44,3.03h0.07v-15.82h3v28.73h-3V919.1z M1046.62,919.4c1.58,0,2.81-0.54,3.7-1.61
					c0.92-1.11,1.36-2.45,1.36-4.01c0-1.55-0.45-2.86-1.36-3.95c-0.89-1.07-2.12-1.62-3.7-1.62c-1.5,0-2.69,0.55-3.61,1.67
					c-0.88,1.08-1.32,2.38-1.32,3.9c0,1.56,0.44,2.88,1.32,3.97C1043.93,918.86,1045.12,919.4,1046.62,919.4z"/>
				<path class="st2" d="M1063.12,920.13c0,0.53-0.18,0.99-0.56,1.36c-0.38,0.37-0.84,0.55-1.38,0.55c-0.52,0-1-0.19-1.37-0.55
					c-0.37-0.37-0.57-0.83-0.57-1.36c0-0.51,0.2-0.96,0.57-1.35c0.37-0.37,0.85-0.56,1.37-0.56c0.53,0,1,0.19,1.38,0.56
					C1062.94,919.17,1063.12,919.63,1063.12,920.13z"/>
				<path class="st2" d="M1079.52,910.44c-1.24-1.39-2.74-2.1-4.47-2.1c-1.45,0-2.67,0.56-3.69,1.64c-1,1.09-1.5,2.38-1.5,3.8
					c0,1.62,0.5,2.91,1.5,3.93c1.04,1.04,2.33,1.57,3.88,1.57c1.61,0,3.04-0.7,4.28-2.07v3.81c-1.29,0.69-2.72,1.02-4.29,1.02
					c-2.31,0-4.29-0.77-5.94-2.35c-1.62-1.55-2.43-3.47-2.43-5.79c0-2.38,0.81-4.36,2.43-5.96c1.62-1.58,3.65-2.37,6.1-2.37
					c1.61,0,2.99,0.33,4.14,1.02V910.44z"/>
				<path class="st2" d="M1083.77,907.94c1.62-1.58,3.6-2.37,5.94-2.37c2.34,0,4.31,0.79,5.91,2.37c1.61,1.59,2.42,3.55,2.42,5.87
					c0,2.32-0.8,4.27-2.42,5.86c-1.6,1.59-3.57,2.37-5.91,2.37c-2.33,0-4.31-0.78-5.94-2.37c-1.6-1.59-2.41-3.54-2.41-5.86
					C1081.36,911.5,1082.17,909.54,1083.77,907.94z M1084.37,913.81c0,1.43,0.5,2.7,1.56,3.81c1.02,1.06,2.28,1.58,3.77,1.58
					c1.46,0,2.73-0.53,3.77-1.58c1.04-1.1,1.56-2.37,1.56-3.81c0-1.46-0.53-2.73-1.56-3.81c-1.04-1.07-2.31-1.59-3.77-1.59
					c-1.5,0-2.75,0.52-3.77,1.59C1084.87,911.09,1084.37,912.36,1084.37,913.81z"/>
				<path class="st2" d="M1103.67,907.99h0.08c0.43-0.72,1.02-1.29,1.78-1.76c0.74-0.43,1.53-0.65,2.35-0.65
					c1.95,0,3.45,0.9,4.5,2.73c0.48-0.83,1.17-1.5,2.02-2c0.84-0.5,1.79-0.73,2.78-0.73c3.46,0,5.17,2.22,5.17,6.68v9.26h-3v-8.77
					c0-0.39-0.02-0.8-0.05-1.18c-0.04-0.38-0.09-0.75-0.19-1.13c-0.09-0.35-0.22-0.68-0.41-1c-0.17-0.3-0.42-0.58-0.72-0.83
					c-0.4-0.26-0.91-0.39-1.53-0.39c-0.63,0-1.16,0.13-1.59,0.39c-0.43,0.25-0.76,0.57-0.99,0.92c-0.25,0.35-0.43,0.84-0.56,1.37
					c-0.12,0.54-0.21,1.05-0.25,1.5c-0.02,0.43-0.05,0.95-0.05,1.51v7.62H1110v-8.2c0-0.53,0-0.96-0.03-1.31
					c-0.02-0.37-0.09-0.8-0.2-1.35c-0.11-0.57-0.25-0.98-0.43-1.25c-0.18-0.3-0.45-0.58-0.83-0.83c-0.38-0.24-0.84-0.36-1.37-0.36
					c-1.54,0-2.52,0.67-2.96,1.99c-0.21,0.61-0.34,1.21-0.41,1.74c-0.06,0.56-0.09,1.21-0.09,1.96v7.62h-3v-15.49h3V907.99z"/>
			</g>
			<g>
				<g>
					<path class="st2" d="M584.63,912.39c14.16,0,28.32,0,42.48,0c1.29,0,1.29-1.99,0-1.99c-14.16,0-28.32,0-42.48,0
						C583.34,910.4,583.34,912.39,584.63,912.39L584.63,912.39z"/>
				</g>
				<g>
					<path class="st2" d="M1149.83,912.39c14.15,0,28.31,0,42.47,0c1.3,0,1.3-1.99,0-1.99c-14.15,0-28.32,0-42.47,0
						C1148.55,910.4,1148.55,912.39,1149.83,912.39L1149.83,912.39z"/>
				</g>
			</g>
		</g>
	</g>
</g>
<g id="Layer_2">
	<g>
		<path class="st3" d="M1337.6,63.27l7.09,15.22h-1.62l-2.39-5.02h-6.57l-2.37,5.02h-1.7l7.19-15.22H1337.6z M1337.42,66.49
			l-2.63,5.52h5.21L1337.42,66.49z"/>
		<path class="st3" d="M1350.98,63.27h4.83c1.2,0,2.13,0.14,2.78,0.43s1.16,0.73,1.53,1.32c0.37,0.6,0.56,1.25,0.56,1.97
			c0,0.68-0.17,1.29-0.5,1.85c-0.33,0.55-0.82,1-1.46,1.34c0.8,0.27,1.41,0.59,1.84,0.95c0.42,0.36,0.76,0.79,1,1.31
			s0.36,1.07,0.36,1.67c0,1.22-0.45,2.26-1.34,3.1c-0.9,0.84-2.09,1.27-3.59,1.27h-6V63.27z M1352.47,64.76v4.87h2.7
			c1.05,0,1.83-0.1,2.32-0.3c0.5-0.2,0.89-0.51,1.18-0.93c0.29-0.42,0.44-0.89,0.44-1.41c0-0.7-0.24-1.25-0.73-1.64
			c-0.49-0.4-1.26-0.59-2.32-0.59H1352.47z M1352.47,71.16V77h3.71c1.11,0,1.92-0.11,2.44-0.33c0.52-0.22,0.93-0.56,1.25-1.02
			c0.31-0.46,0.47-0.96,0.47-1.51c0-0.67-0.22-1.26-0.66-1.77c-0.44-0.51-1.05-0.85-1.82-1.04c-0.52-0.12-1.42-0.18-2.7-0.18
			H1352.47z"/>
		<path class="st3" d="M1367.6,75.45l1.29-0.78c0.91,1.68,1.96,2.51,3.15,2.51c0.51,0,1-0.12,1.45-0.36
			c0.45-0.24,0.79-0.56,1.03-0.95c0.23-0.4,0.35-0.82,0.35-1.27c0-0.51-0.17-1.01-0.51-1.5c-0.48-0.68-1.35-1.37-2.62-2.07
			c-1.27-0.96-2.06-1.65-2.36-2.08c-0.54-0.71-0.81-1.49-0.81-2.33c0-0.66,0.16-1.27,0.47-1.81c0.31-0.54,0.76-0.97,1.34-1.29
			c0.58-0.32,1.21-0.48,1.88-0.48c0.71,0,1.38,0.18,2,0.54c0.62,0.36,1.28,1.01,1.98,1.97l-1.24,0.93
			c-0.57-0.75-1.05-1.25-1.46-1.49c-0.4-0.24-0.85-0.36-1.32-0.36c-0.61,0-1.11,0.19-1.5,0.56c-0.39,0.37-0.58,0.83-0.58,1.37
			c0,0.33,0.07,0.65,0.21,0.96c0.14,0.31,0.39,0.65,0.76,1.01c0.2,0.2,0.85,0.71,1.97,1.53c1.31,0.97,2.21,1.78,2.7,2.41
			c0.49,0.64,0.73,1.33,0.73,2.09c0,1.11-0.42,2.07-1.26,2.88c-0.84,0.81-1.86,1.22-3.05,1.22c-0.93,0-1.77-0.25-2.52-0.74
			S1368.23,76.61,1367.6,75.45z"/>
		<path class="st3" d="M1382.09,64.79v-1.48h8.35v1.48h-3.41v13.74h-1.55V64.79H1382.09z"/>
		<path class="st3" d="M1396.9,63.31h3.03c1.69,0,2.84,0.07,3.44,0.21c0.9,0.21,1.64,0.65,2.21,1.33s0.85,1.52,0.85,2.51
			c0,0.83-0.19,1.56-0.58,2.19c-0.39,0.62-0.95,1.1-1.68,1.42c-0.73,0.33-1.36,0.49-1.89,0.49l4.36,7.08h-1.87l-4.36-7.08h-1.98
			v7.08h-1.52V63.31z M1398.42,64.8v5.17l2.62,0.02c1.01,0,1.76-0.1,2.25-0.29c0.49-0.19,0.87-0.5,1.14-0.92
			c0.27-0.42,0.41-0.9,0.41-1.43c0-0.51-0.14-0.97-0.42-1.39c-0.28-0.42-0.64-0.72-1.08-0.9c-0.44-0.18-1.19-0.27-2.24-0.27H1398.42
			z"/>
		<path class="st3" d="M1420.08,63.27l7.09,15.22h-1.62l-2.39-5.02h-6.57l-2.37,5.02h-1.7l7.19-15.22H1420.08z M1419.9,66.49
			l-2.63,5.52h5.21L1419.9,66.49z"/>
		<path class="st3" d="M1447.91,66.23l-1.21,0.9c-0.66-0.86-1.45-1.51-2.38-1.95c-0.93-0.44-1.94-0.66-3.05-0.66
			c-1.22,0-2.34,0.29-3.38,0.87c-1.03,0.58-1.83,1.36-2.41,2.34c-0.57,0.98-0.86,2.09-0.86,3.32c0,1.85,0.64,3.35,1.91,4.48
			c1.27,1.13,2.88,1.7,4.81,1.7c2.13,0,3.92-0.83,5.35-2.5l1.21,0.91c-0.76,0.96-1.71,1.71-2.84,2.24c-1.14,0.53-2.4,0.79-3.8,0.79
			c-2.67,0-4.77-0.89-6.31-2.66c-1.29-1.5-1.93-3.19-1.93-5.09c0-2.22,0.78-4.1,2.34-5.62c1.56-1.53,3.52-2.29,5.86-2.29
			c1.42,0,2.71,0.28,3.85,0.85C1446.24,64.42,1447.18,65.21,1447.91,66.23z"/>
		<path class="st3" d="M1453.64,64.79v-1.48h8.35v1.48h-3.41v13.74h-1.55V64.79H1453.64z"/>
		<path class="st4" d="M1477.56,63.27h4.83c1.2,0,2.13,0.14,2.78,0.43s1.16,0.73,1.53,1.32c0.37,0.6,0.56,1.25,0.56,1.97
			c0,0.68-0.17,1.29-0.5,1.85c-0.33,0.55-0.82,1-1.46,1.34c0.8,0.27,1.41,0.59,1.84,0.95c0.42,0.36,0.76,0.79,1,1.31
			s0.36,1.07,0.36,1.67c0,1.22-0.45,2.26-1.34,3.1c-0.9,0.84-2.09,1.27-3.59,1.27h-6V63.27z M1479.05,64.76v4.87h2.7
			c1.05,0,1.83-0.1,2.32-0.3c0.5-0.2,0.89-0.51,1.18-0.93c0.29-0.42,0.44-0.89,0.44-1.41c0-0.7-0.24-1.25-0.73-1.64
			c-0.49-0.4-1.26-0.59-2.32-0.59H1479.05z M1479.05,71.16V77h3.71c1.11,0,1.92-0.11,2.44-0.33c0.52-0.22,0.93-0.56,1.25-1.02
			c0.31-0.46,0.47-0.96,0.47-1.51c0-0.67-0.22-1.26-0.66-1.77c-0.44-0.51-1.05-0.85-1.82-1.04c-0.52-0.12-1.42-0.18-2.7-0.18
			H1479.05z"/>
		<path class="st4" d="M1501.66,63.27l7.09,15.22h-1.62l-2.39-5.02h-6.57l-2.37,5.02h-1.7l7.19-15.22H1501.66z M1501.48,66.49
			l-2.63,5.52h5.21L1501.48,66.49z"/>
		<path class="st4" d="M1529.49,66.23l-1.21,0.9c-0.66-0.86-1.45-1.51-2.38-1.95c-0.93-0.44-1.94-0.66-3.05-0.66
			c-1.22,0-2.34,0.29-3.38,0.87c-1.03,0.58-1.83,1.36-2.41,2.34c-0.57,0.98-0.86,2.09-0.86,3.32c0,1.85,0.64,3.35,1.91,4.48
			c1.27,1.13,2.88,1.7,4.81,1.7c2.13,0,3.92-0.83,5.35-2.5l1.21,0.91c-0.76,0.96-1.71,1.71-2.84,2.24c-1.14,0.53-2.4,0.79-3.8,0.79
			c-2.67,0-4.77-0.89-6.31-2.66c-1.29-1.5-1.93-3.19-1.93-5.09c0-2.22,0.78-4.1,2.34-5.62c1.56-1.53,3.52-2.29,5.86-2.29
			c1.42,0,2.71,0.28,3.85,0.85C1527.82,64.42,1528.75,65.21,1529.49,66.23z"/>
		<path class="st4" d="M1536.5,63.35h1.55v5.87l6.69-5.87h2.3l-5.63,5.19l6.2,10.03h-2l-5.68-8.86l-1.87,1.64v7.21h-1.55V63.35z"/>
		<path class="st4" d="M1568.38,65.95l-1.18,1.12c-0.85-0.83-1.78-1.47-2.79-1.9c-1.01-0.43-2-0.65-2.96-0.65
			c-1.19,0-2.32,0.29-3.4,0.88c-1.08,0.59-1.91,1.38-2.51,2.38c-0.6,1-0.89,1.95-0.89,2.85c0,1.15,0.31,2.24,0.92,3.27
			c0.62,1.03,1.47,1.84,2.55,2.42c1.08,0.58,2.27,0.88,3.56,0.88c1.56,0,2.88-0.44,3.97-1.32c1.08-0.88,1.73-2.02,1.93-3.43h-4.85
			v-1.47h6.55c-0.01,2.35-0.71,4.22-2.09,5.6s-3.23,2.07-5.56,2.07c-2.81,0-5.03-0.96-6.67-2.87c-1.27-1.48-1.9-3.18-1.9-5.12
			c0-1.44,0.36-2.73,1.08-3.86c0.72-1.13,1.72-2.05,2.98-2.75c1.27-0.7,2.7-1.06,4.29-1.06c1.29,0,2.5,0.23,3.63,0.7
			C1566.18,64.18,1567.29,64.92,1568.38,65.95z"/>
		<path class="st4" d="M1576.43,63.31h3.03c1.69,0,2.84,0.07,3.44,0.21c0.9,0.21,1.64,0.65,2.21,1.33s0.85,1.52,0.85,2.51
			c0,0.83-0.19,1.56-0.58,2.19c-0.39,0.62-0.95,1.1-1.68,1.42c-0.73,0.33-1.36,0.49-1.89,0.49l4.36,7.08h-1.87l-4.36-7.08h-1.98
			v7.08h-1.52V63.31z M1577.95,64.8v5.17l2.62,0.02c1.01,0,1.76-0.1,2.25-0.29c0.49-0.19,0.87-0.5,1.14-0.92
			c0.27-0.42,0.41-0.9,0.41-1.43c0-0.51-0.14-0.97-0.42-1.39c-0.28-0.42-0.64-0.72-1.08-0.9c-0.44-0.18-1.19-0.27-2.24-0.27H1577.95
			z"/>
		<path class="st4" d="M1600.65,63.05c2.3,0,4.22,0.77,5.77,2.31c1.55,1.54,2.32,3.43,2.32,5.69c0,2.22-0.77,4.05-2.32,5.48
			s-3.43,2.14-5.65,2.14c-2.26,0-4.16-0.77-5.72-2.31c-1.55-1.54-2.33-3.29-2.33-5.24c0-1.46,0.35-2.81,1.06-4.06
			s1.67-2.23,2.89-2.94C1597.91,63.4,1599.23,63.05,1600.65,63.05z M1600.72,64.54c-1.12,0-2.19,0.29-3.2,0.88
			c-1.01,0.58-1.79,1.38-2.35,2.37c-0.56,1-0.84,2.1-0.84,3.32c0,1.81,0.62,3.27,1.87,4.39c1.25,1.12,2.76,1.68,4.52,1.68
			c1.18,0,2.27-0.29,3.27-0.86c1.01-0.57,1.79-1.36,2.35-2.34c0.56-0.99,0.84-1.97,0.84-2.94c0-1.2-0.28-2.29-0.84-3.27
			c-0.56-0.98-1.35-1.76-2.37-2.34C1602.95,64.84,1601.86,64.54,1600.72,64.54z"/>
		<path class="st4" d="M1616.03,63.07h1.52v9.18c0,1.09,0.02,1.77,0.07,2.04c0.08,0.6,0.25,1.1,0.52,1.5
			c0.27,0.4,0.7,0.74,1.27,1.01c0.57,0.27,1.15,0.41,1.73,0.41c0.5,0.13,1.19,0.09,2.06-0.13c0.88-0.22,1.47-0.55,1.77-0.98
			c0.31-0.43,0.53-0.93,0.68-1.47c0.11-0.38,0.16-1.17,0.16-2.37v-9.18h1.52v9.18c0,1.36-0.13,2.46-0.4,3.3
			c-0.27,0.84-0.8,1.57-1.6,2.19c-0.8,0.62-2.17,0.93-4.12,0.93c-1.23,0-2.28-0.29-3.16-0.88c-0.87-0.59-1.46-1.36-1.75-2.32
			c-0.19-0.6-0.29-1.67-0.29-3.21V63.07z"/>
		<path class="st4" d="M1635.06,78.53V63.31h0.33l10.12,11.65V63.31h1.5v15.22h-0.35l-10.02-11.5v11.5H1635.06z"/>
		<path class="st4" d="M1654.89,78.49V63.27h3.15c2.28,0,3.93,0.19,4.97,0.55c1.47,0.51,2.62,1.41,3.45,2.68
			c0.83,1.28,1.25,2.8,1.25,4.56c0,1.52-0.33,2.86-0.99,4.02s-1.52,2.02-2.57,2.57c-1.05,0.55-2.52,0.83-4.42,0.83H1654.89z
			 M1656.35,77.04h1.75c2.1,0,3.56-0.13,4.38-0.39c1.14-0.37,2.04-1.04,2.7-2.01c0.66-0.97,0.99-2.15,0.99-3.56
			c0-1.47-0.35-2.73-1.06-3.77c-0.71-1.04-1.7-1.75-2.97-2.13c-0.96-0.29-2.53-0.44-4.71-0.44h-1.08V77.04z"/>
	</g>
	<g class="st5">
		<path class="st6" d="M-4.62,136.5c244-61.18,12.97,734.72,319.67,729.67c324-5.33,183-517,454-480
			c130.32,17.79,234.09,229.81,330,317c220,200,602,50,681.9-215.17"/>
		<path class="st6" d="M-4.49,146.92c240.56-60.32,20.42,724.37,322.8,719.39c319.44-5.26,186.65-509.72,453.83-473.24
			c128.48,17.54,234.79,226.57,329.35,312.54c216.9,197.18,600.7,49.3,679.47-212.14"/>
		<path class="st6" d="M-4.35,157.35c237.13-59.45,27.87,714.02,325.92,709.11c314.87-5.18,190.3-502.44,453.67-466.48
			c126.65,17.29,235.49,223.34,328.69,308.07c213.8,194.37,599.4,48.59,677.04-209.11"/>
		<path class="st6" d="M-4.22,167.77c233.69-58.59,35.31,703.67,329.05,698.84c310.31-5.11,193.95-495.15,453.5-459.72
			c124.81,17.04,236.18,220.1,328.04,303.61c210.7,191.55,598.09,47.89,674.62-206.08"/>
		<path class="st6" d="M-4.09,178.2c230.25-57.73,42.76,693.32,332.18,688.56c305.75-5.03,197.6-487.87,453.33-452.96
			c122.98,16.79,236.88,216.86,327.39,299.14c207.61,188.73,596.79,47.18,672.19-203.05"/>
		<path class="st6" d="M-3.96,188.62c226.82-56.87,50.21,682.97,335.31,678.28c301.18-4.96,201.25-480.59,453.16-446.2
			c121.14,16.54,237.58,213.62,326.74,294.68c204.51,185.92,595.49,46.48,669.76-200.02"/>
		<path class="st6" d="M-3.83,199.04c223.38-56.01,57.66,672.63,338.44,668c296.62-4.88,204.9-473.31,453-439.44
			C906.91,443.9,1025.88,638,1113.69,717.82c201.41,183.1,594.19,45.77,667.34-196.98"/>
		<path class="st6" d="M-3.7,209.47c219.94-55.15,65.11,662.28,341.57,657.73c292.06-4.81,208.55-466.03,452.83-432.68
			c117.47,16.04,238.98,207.15,325.43,285.75c198.31,180.28,592.89,45.07,664.91-193.95"/>
		<path class="st6" d="M-3.56,219.89c216.51-54.28,72.55,651.93,344.7,647.45c287.49-4.73,212.2-458.75,452.66-425.92
			c115.64,15.79,239.67,203.91,324.78,281.28c195.21,177.46,591.59,44.37,662.48-190.92"/>
		<path class="st6" d="M-3.43,230.32c213.07-53.42,80,641.58,347.82,637.17c282.93-4.66,215.85-451.46,452.49-419.15
			c113.8,15.54,240.37,200.68,324.12,276.82c192.11,174.65,590.28,43.66,660.05-187.89"/>
		<path class="st6" d="M-3.3,240.74c209.63-52.56,87.45,631.23,350.95,626.9c278.37-4.58,219.49-444.18,452.33-412.39
			c111.97,15.29,241.07,197.44,323.47,272.35c189.01,171.83,588.98,42.96,657.63-184.86"/>
		<path class="st6" d="M-3.17,251.17c206.2-51.7,94.9,620.89,354.08,616.62c273.8-4.51,223.14-436.9,452.16-405.63
			c110.13,15.04,241.77,194.2,322.82,267.89c185.92,169.01,587.68,42.25,655.2-181.83"/>
		<path class="st6" d="M-3.04,261.59c202.76-50.84,102.35,610.54,357.21,606.34c269.24-4.43,226.79-429.62,451.99-398.87
			c108.29,14.79,242.47,190.97,322.17,263.42c182.82,166.2,586.38,41.55,652.77-178.8"/>
		<path class="st6" d="M-2.91,272.02c199.32-49.98,109.8,600.19,360.34,596.07c264.68-4.36,230.44-422.34,451.82-392.11
			c106.46,14.53,243.16,187.73,321.51,258.96c179.72,163.38,585.08,40.85,650.34-175.77"/>
		<path class="st6" d="M-2.78,282.44c195.89-49.11,117.24,589.84,363.47,585.79c260.11-4.28,234.09-415.06,451.66-385.35
			c104.62,14.28,243.86,184.49,320.86,254.49c176.62,160.56,583.77,40.14,647.92-172.74"/>
		<path class="st6" d="M-2.64,292.87c192.45-48.25,124.69,579.49,366.59,575.51c255.55-4.21,237.74-407.77,451.49-378.59
			c102.79,14.03,244.56,181.26,320.21,250.03c173.52,157.75,582.47,39.44,645.49-169.71"/>
		<path class="st6" d="M-2.51,303.29C186.5,255.9,129.63,872.44,367.21,868.53c250.99-4.13,241.39-400.49,451.32-371.83
			c100.95,13.78,245.26,178.02,319.55,245.56c170.42,154.93,581.17,38.73,643.06-166.68"/>
		<path class="st6" d="M-2.38,313.72c185.58-46.53,139.59,558.8,372.85,554.96c246.42-4.06,245.04-393.21,451.15-365.07
			c99.12,13.53,245.96,174.78,318.9,241.1c167.32,152.11,579.87,38.03,640.64-163.65"/>
		<path class="st6" d="M-2.25,324.14c182.14-45.67,147.04,548.45,375.98,544.68c241.86-3.98,248.69-385.93,450.99-358.31
			c97.28,13.28,246.65,171.55,318.25,236.63c164.23,149.3,578.57,37.32,638.21-160.62"/>
		<path class="st6" d="M-2.12,334.56c178.7-44.81,154.49,538.1,379.11,534.4c237.3-3.91,252.34-378.65,450.82-351.55
			c95.45,13.03,247.35,168.31,317.6,232.17c161.13,146.48,577.27,36.62,635.78-157.59"/>
		<path class="st6" d="M-1.99,344.99c175.27-43.94,161.93,527.75,382.24,524.13c232.73-3.83,255.99-371.37,450.65-344.79
			c93.61,12.78,248.05,165.07,316.94,227.7c158.03,143.66,575.96,35.92,633.35-154.56"/>
		<path class="st6" d="M-1.86,355.41c171.83-43.08,169.38,517.41,385.37,513.85c228.17-3.76,259.64-364.08,450.48-338.03
			c91.77,12.53,248.75,161.84,316.29,223.24c154.93,140.85,574.66,35.21,630.93-151.53"/>
		<path class="st6" d="M-1.72,365.84c168.39-42.22,176.83,507.06,388.49,503.57c223.61-3.68,263.29-356.8,450.32-331.27
			c89.94,12.28,249.45,158.6,315.64,218.77c151.83,138.03,573.36,34.51,628.5-148.5"/>
		<path class="st6" d="M-1.59,376.26c164.96-41.36,184.28,496.71,391.62,493.3c219.04-3.61,266.94-349.52,450.15-324.51
			c88.1,12.03,250.14,155.36,314.99,214.31c148.73,135.21,572.06,33.8,626.07-145.47"/>
		<path class="st6" d="M-1.46,386.69c161.52-40.5,191.73,486.36,394.75,483.02c214.48-3.53,270.59-342.24,449.98-317.75
			c86.27,11.78,250.84,152.13,314.33,209.85c145.63,132.39,570.76,33.1,623.65-142.44"/>
		<path class="st6" d="M-1.33,397.11c158.08-39.64,199.17,476.01,397.88,472.74c209.92-3.46,274.24-334.96,449.81-310.99
			c84.43,11.53,251.54,148.89,313.68,205.38c142.54,129.58,569.45,32.39,621.22-139.4"/>
		<path class="st6" d="M-1.2,407.54C153.45,368.76,205.42,873.2,399.81,870c205.35-3.38,277.89-327.68,449.65-304.23
			c82.6,11.28,252.24,145.65,313.03,200.92c139.44,126.76,568.15,31.69,618.79-136.37"/>
		<path class="st6" d="M-1.07,417.96C150.14,380.05,213,873.28,403.07,870.15c200.79-3.31,281.54-320.39,449.48-297.46
			c80.76,11.03,252.94,142.42,312.37,196.45c136.34,123.94,566.85,30.99,616.36-133.34"/>
		<path class="st6" d="M-0.94,428.39c147.77-37.05,221.52,444.97,407.27,441.91c196.23-3.23,285.18-313.11,449.31-290.7
			c78.93,10.78,253.63,139.18,311.72,191.99c133.24,121.13,565.55,30.28,613.94-130.31"/>
		<path class="st6" d="M-0.8,438.81c144.34-36.19,228.97,434.62,410.39,431.63c191.66-3.15,288.83-305.83,449.14-283.94
			c77.09,10.53,254.33,135.94,311.07,187.52c130.14,118.31,564.25,29.58,611.51-127.28"/>
		<path class="st6" d="M-0.67,449.24c140.9-35.33,236.42,424.27,413.52,421.36c187.1-3.08,292.48-298.55,448.98-277.18
			c75.26,10.27,255.03,132.71,310.42,183.06c127.04,115.49,562.95,28.87,609.08-124.25"/>
		<path class="st6" d="M-0.54,459.66c137.46-34.47,243.86,413.92,416.65,411.08c182.54-3,296.13-291.27,448.81-270.42
			c73.42,10.02,255.73,129.47,309.76,178.59c123.94,112.68,561.64,28.17,606.66-121.22"/>
		<path class="st6" d="M-0.41,470.08c134.03-33.6,251.31,403.58,419.78,400.8c177.97-2.93,299.78-283.99,448.64-263.66
			c71.58,9.77,256.43,126.23,309.11,174.13c120.85,109.86,560.34,27.46,604.23-118.19"/>
		<path class="st6" d="M-0.28,480.51c130.59-32.74,258.76,393.23,422.91,390.53c173.41-2.85,303.43-276.7,448.47-256.9
			c69.75,9.52,257.12,123,308.46,169.66c117.75,107.04,559.04,26.76,601.8-115.16"/>
		<path class="st6" d="M-0.15,490.93c127.15-31.88,266.21,382.88,426.04,380.25c168.85-2.78,307.08-269.42,448.31-250.14
			c67.91,9.27,257.82,119.76,307.8,165.2c114.65,104.23,557.74,26.06,599.37-112.13"/>
		<path class="st6" d="M-0.02,501.36c123.72-31.02,273.66,372.53,429.17,369.97c164.28-2.7,310.73-262.14,448.14-243.38
			c66.08,9.02,258.52,116.52,307.15,160.73c111.55,101.41,556.44,25.35,596.95-109.1"/>
		<path class="st6" d="M0.12,511.78c120.28-30.16,281.11,362.18,432.29,359.69c159.72-2.63,314.38-254.86,447.97-236.62
			c64.24,8.77,259.22,113.29,306.5,156.27c108.45,98.59,555.13,24.65,594.52-106.07"/>
		<path class="st6" d="M0.25,522.21c116.85-29.3,288.55,351.84,435.42,349.42c155.15-2.55,318.03-247.58,447.8-229.86
			c62.41,8.52,259.92,110.05,305.85,151.8c105.35,95.77,553.83,23.94,592.09-103.04"/>
		<path class="st6" d="M0.38,532.63c113.41-28.43,296,341.49,438.55,339.14c150.59-2.48,321.68-240.3,447.64-223.1
			c60.57,8.27,260.61,106.81,305.19,147.34c102.25,92.96,552.53,23.24,589.67-100.01"/>
		<path class="st6" d="M0.51,543.06c109.97-27.57,303.45,331.14,441.68,328.86c146.03-2.4,325.33-233.01,447.47-216.34
			c58.74,8.02,261.31,103.58,304.54,142.87c99.15,90.14,551.23,22.54,587.24-96.98"/>
		<path class="st6" d="M0.64,553.48c106.54-26.71,310.9,320.79,444.81,318.59c141.46-2.33,328.98-225.73,447.3-209.58
			c56.9,7.77,262.01,100.34,303.89,138.41c96.06,87.32,549.93,21.83,584.81-93.95"/>
		<path class="st6" d="M0.77,563.91c103.1-25.85,318.35,310.44,447.94,308.31c136.9-2.25,332.63-218.45,447.13-202.82
			c55.06,7.52,262.71,97.1,303.23,133.94c92.96,84.51,548.62,21.13,582.38-90.92"/>
		<path class="st6" d="M0.9,574.33c99.66-24.99,325.79,300.09,451.07,298.03c132.34-2.18,336.28-211.17,446.97-196.06
			c53.23,7.27,263.41,93.87,302.58,129.48c89.86,81.69,547.32,20.42,579.96-87.89"/>
		<path class="st6" d="M1.04,584.75c96.23-24.13,333.24,289.75,454.19,287.76c127.77-2.1,339.93-203.89,446.8-189.3
			c51.39,7.02,264.1,90.63,301.93,125.01c86.76,78.87,546.02,19.72,577.53-84.86"/>
		<path class="st6" d="M1.17,595.18c92.79-23.26,340.69,279.4,457.32,277.48c123.21-2.03,343.58-196.61,446.63-182.54
			c49.56,6.77,264.8,87.39,301.28,120.55c83.66,76.06,544.72,19.01,575.1-81.82"/>
		<path class="st6" d="M1.3,605.6c89.35-22.4,348.14,269.05,460.45,267.2c118.65-1.95,347.23-189.32,446.46-175.77
			c47.72,6.52,265.5,84.16,300.62,116.08c80.56,73.24,543.42,18.31,572.68-78.79"/>
		<path class="st6" d="M1.43,616.03c85.92-21.54,355.59,258.7,463.58,256.92c114.08-1.88,350.87-182.04,446.3-169.01
			c45.89,6.27,266.2,80.92,299.97,111.62c77.46,70.42,542.12,17.61,570.25-75.76"/>
		<path class="st6" d="M1.56,626.45C84.04,605.77,364.6,874.81,468.27,873.1c109.52-1.8,354.52-174.76,446.13-162.25
			c44.05,6.01,266.9,77.68,299.32,107.15c74.37,67.61,540.81,16.9,567.82-72.73"/>
		<path class="st6" d="M1.69,636.88c79.04-19.82,370.48,238.01,469.84,236.37c104.96-1.73,358.17-167.48,445.96-155.49
			c42.22,5.76,267.6,74.45,298.66,102.69c71.27,64.79,539.51,16.2,565.39-69.7"/>
		<path class="st6" d="M1.82,647.3c75.61-18.96,377.93,227.66,472.97,226.09c100.39-1.65,361.82-160.2,445.8-148.73
			c40.38,5.51,268.29,71.21,298.01,98.23c68.17,61.97,538.21,15.49,562.97-66.67"/>
		<path class="st6" d="M1.96,657.73c72.17-18.09,385.38,217.31,476.09,215.82c95.83-1.58,365.47-152.92,445.63-141.97
			c38.55,5.26,268.99,67.97,297.36,93.76c65.07,59.15,536.91,14.79,560.54-63.64"/>
		<path class="st6" d="M2.09,668.15c68.73-17.23,392.83,206.96,479.22,205.54c91.27-1.5,369.12-145.63,445.46-135.21
			c36.71,5.01,269.69,64.73,296.71,89.3c61.97,56.34,535.61,14.08,558.11-60.61"/>
		<path class="st6" d="M2.22,678.58c65.3-16.37,400.28,196.61,482.35,195.26c86.7-1.43,372.77-138.35,445.29-128.45
			c34.87,4.76,270.39,61.5,296.05,84.83c58.87,53.52,534.3,13.38,555.69-57.58"/>
		<path class="st6" d="M2.35,689c61.86-15.51,407.73,186.27,485.48,184.99c82.14-1.35,376.42-131.07,445.13-121.69
			c33.04,4.51,271.09,58.26,295.4,80.37c55.77,50.7,533,12.68,553.26-54.55"/>
		<path class="st6" d="M2.48,699.43c58.42-14.65,415.17,175.92,488.61,174.71c77.58-1.28,380.07-123.79,444.96-114.93
			c31.2,4.26,271.78,55.02,294.75,75.9c52.68,47.89,531.7,11.97,550.83-51.52"/>
		<path class="st6" d="M2.61,709.85c54.99-13.79,422.62,165.57,491.74,164.43c73.01-1.2,383.72-116.51,444.79-108.17
			c29.37,4.01,272.48,51.79,294.1,71.44c49.58,45.07,530.4,11.27,548.4-48.49"/>
		<path class="st6" d="M2.75,720.27c51.55-12.92,430.07,155.22,494.87,154.15c68.45-1.13,387.37-109.23,444.62-101.41
			c27.53,3.76,273.18,48.55,293.44,66.97c46.48,42.25,529.1,10.56,545.98-45.46"/>
		<path class="st6" d="M2.88,730.7c48.11-12.06,437.52,144.87,497.99,143.88c63.89-1.05,391.02-101.94,444.46-94.65
			c25.7,3.51,273.88,45.31,292.79,62.51c43.38,39.44,527.8,9.86,543.55-42.43"/>
		<path class="st6" d="M3.01,741.12c44.68-11.2,444.97,134.53,501.12,133.6c59.32-0.98,394.67-94.66,444.29-87.89
			c23.86,3.26,274.58,42.08,292.14,58.04c40.28,36.62,526.49,9.15,541.12-39.4"/>
		<path class="st6" d="M3.14,751.55c41.24-10.34,452.41,124.18,504.25,123.32c54.76-0.9,398.32-87.38,444.12-81.13
			c22.03,3.01,275.27,38.84,291.48,53.58c37.18,33.8,525.19,8.45,538.7-36.37"/>
		<path class="st6" d="M3.27,761.97c37.8-9.48,459.86,113.83,507.38,113.05c50.2-0.83,401.97-80.1,443.95-74.37
			c20.19,2.76,275.97,35.6,290.83,49.11c34.08,30.99,523.89,7.75,536.27-33.34"/>
		<path class="st6" d="M3.4,772.4c34.37-8.62,467.31,103.48,510.51,102.77c45.63-0.75,405.62-72.82,443.79-67.61
			c18.35,2.51,276.67,32.37,290.18,44.65c30.99,28.17,522.59,7.04,533.84-30.31"/>
		<path class="st6" d="M3.53,782.82c30.93-7.75,474.76,93.13,513.64,92.49c41.07-0.68,409.27-65.54,443.62-60.85
			c16.52,2.26,277.37,29.13,289.53,40.18c27.89,25.35,521.29,6.34,531.41-27.27"/>
		<path class="st6" d="M3.67,793.25c27.49-6.89,482.21,82.78,516.77,82.22c36.51-0.6,412.92-58.25,443.45-54.08
			c14.68,2,278.07,25.89,288.87,35.72c24.79,22.54,519.98,5.63,528.99-24.24"/>
		<path class="st6" d="M3.8,803.67c24.06-6.03,489.66,72.44,519.89,71.94c31.94-0.53,416.57-50.97,443.28-47.32
			c12.85,1.75,278.76,22.66,288.22,31.25c21.69,19.72,518.68,4.93,526.56-21.21"/>
		<path class="st6" d="M3.93,814.1c20.62-5.17,497.1,62.09,523.02,61.66c27.38-0.45,420.21-43.69,443.12-40.56
			c11.01,1.5,279.46,19.42,287.57,26.79c18.59,16.9,517.38,4.23,524.13-18.18"/>
		<path class="st6" d="M4.06,824.52c17.18-4.31,504.55,51.74,526.15,51.38c22.82-0.38,423.86-36.41,442.95-33.8
			c9.18,1.25,280.16,16.18,286.91,22.32c15.49,14.08,516.08,3.52,521.71-15.15"/>
		<path class="st6" d="M4.19,834.95c13.75-3.45,512,41.39,529.28,41.11c18.25-0.3,427.51-29.13,442.78-27.04
			c7.34,1,280.86,12.95,286.26,17.86c12.39,11.27,514.78,2.82,519.28-12.12"/>
		<path class="st6" d="M4.32,845.37c10.31-2.58,519.45,31.04,532.41,30.83c13.69-0.23,431.16-21.85,442.61-20.28
			c5.51,0.75,281.56,9.71,285.61,13.39c9.3,8.45,513.48,2.11,516.85-9.09"/>
		<path class="st6" d="M4.45,855.79c6.87-1.72,526.9,20.7,535.54,20.55c9.13-0.15,434.81-14.56,442.45-13.52
			c3.67,0.5,282.25,6.47,284.96,8.93c6.2,5.63,512.17,1.41,514.42-6.06"/>
		<path class="st6" d="M4.59,866.22c3.44-0.86,534.35,10.35,538.66,10.28c4.56-0.08,438.46-7.28,442.28-6.76
			c1.84,0.25,282.95,3.24,284.3,4.46c3.1,2.82,510.87,0.7,512-3.03"/>
		<line class="st6" x1="4.72" y1="876.64" x2="1781.84" y2="876.64"/>
	</g>
	<g>
		<path class="st7" d="M-0.95,91.16c473.95-59.83,324.03,729.69,561,725c232.28-4.6-6-630,295-593
			c149.95,18.43-51.01,498.04,143,577.33c261,106.67,402-564.33,786.67,69.33"/>
		<path class="st8" d="M-0.97,102.23c291.87-38.03,346.89,248.17,404.03,470c34.68,134.65,69.05,244.7,158.22,242.52
			c230.92-5.55-2.64-623.96,297.48-586.29c32.32,4.04,48.23,29.49,55.71,67.62c27.17,138.58-59.77,442.26,91.04,503.52
			c261.4,105.29,395.43-563.25,779.17,61.4"/>
		<path class="st9" d="M-0.98,113.3C288.06,74.44,344.61,355.65,403.6,574.87c35.73,132.79,70.19,241.06,158.91,238.48
			c229.55-6.5,0.73-617.93,299.96-579.57c32.13,4.07,47.94,29.32,55.77,67c28.61,137.84-55.12,437.95,94.73,497.93
			c261.5,104.67,388.86-562.17,771.68,53.47"/>
		<path class="st10" d="M-1,124.37c286.22-39.7,344.28,236.5,405.14,453.13c36.78,130.92,71.33,237.43,159.6,234.43
			c228.19-7.46,4.09-611.89,302.44-572.86c31.94,4.11,47.66,29.14,55.82,66.39c30.06,137.12-50.37,433.42,98.42,492.35
			c261.76,103.66,382.3-561.09,764.19,45.53"/>
		<path class="st11" d="M-1.02,135.44c283.39-40.53,342.96,230.64,405.7,444.69c37.82,129.04,72.48,233.79,160.28,230.39
			c226.82-8.41,7.45-605.85,304.91-566.14c31.75,4.15,47.38,28.97,55.88,65.78c31.53,136.41-45.62,428.88,102.11,486.76
			c262.02,102.65,375.73-560,756.69,37.6"/>
		<path class="st12" d="M-1.04,146.51c280.56-41.36,341.63,224.78,406.25,436.26c38.86,127.16,73.62,230.16,160.97,226.35
			c225.46-9.36,10.82-599.82,307.39-559.43c31.56,4.19,47.1,28.8,55.94,65.16c33,135.71-40.86,424.34,105.8,481.18
			c262.29,101.64,369.16-558.92,749.2,29.67"/>
		<path class="st13" d="M-1.05,157.58c277.73-42.19,340.29,218.9,406.81,427.82c39.89,125.27,74.76,226.52,161.66,222.31
			C791.51,797.4,581.6,213.93,877.29,255c31.37,4.23,46.83,28.64,56,64.55c34.48,135.02-36.11,419.79,109.49,475.59
			c262.57,100.62,362.59-557.84,741.71,21.73"/>
		<path class="st14" d="M-1.07,168.65c274.9-43.02,338.94,213,407.36,419.39c40.91,123.38,75.9,222.88,162.35,218.26
			c222.72-11.27,17.45-587.08,312.35-546c31.17,4.34,46.56,28.47,56.06,63.93c35.98,134.35-31.35,415.24,113.18,470.01
			c262.85,99.6,356.02-556.76,734.21,13.8"/>
		<path class="st15" d="M-1.09,179.72c272.07-43.85,337.58,207.1,407.92,410.95c41.92,121.48,77.04,219.25,163.04,214.22
			c221.36-12.22,20.8-580.96,314.83-539.28c30.98,4.39,46.3,28.31,56.12,63.32c37.48,133.69-26.58,410.68,116.87,464.42
			c263.13,98.58,349.46-555.68,726.72,5.87"/>
		<path class="st16" d="M-1.1,190.79c269.24-44.68,336.21,201.18,408.48,402.51c42.92,119.58,78.19,215.61,163.73,210.18
			c219.99-13.17,24.15-574.83,317.31-532.57c30.79,4.44,46.05,28.15,56.18,62.71c39,133.04-21.81,406.11,120.56,458.84
			c263.42,97.55,342.89-554.59,719.23-2.07"/>
		<path class="st17" d="M-1.12,201.86c266.41-45.51,334.82,195.24,409.03,394.08c43.92,117.67,79.32,211.81,164.42,206.13
			c218.6-14.57,27.5-568.72,319.79-525.85c30.59,4.49,45.8,27.99,56.24,62.09c40.53,132.4-17.04,401.54,124.25,453.25
			c263.71,96.52,336.32-553.51,711.73-10"/>
		<path class="st18" d="M-1.14,212.93c263.58-46.34,333.42,189.3,409.59,385.64c44.9,115.76,80.46,208.15,165.11,202.09
			c217.23-15.56,30.85-562.6,322.26-519.14c30.4,4.53,45.55,27.83,56.3,61.48c42.08,131.78-12.26,396.96,127.94,447.67
			c264.01,95.48,329.75-552.43,704.24-17.93"/>
		<path class="st19" d="M-1.16,224c260.76-47.17,332.01,183.34,410.14,377.21c45.88,113.84,81.6,204.5,165.8,198.05
			c215.86-16.55,34.2-556.48,324.74-512.42c30.21,4.58,45.31,27.67,56.35,60.86c43.64,131.16-7.49,392.38,131.63,442.08
			c264.32,94.44,323.18-551.35,696.75-25.86"/>
		<path class="st20" d="M-1.17,235.07c257.93-48,330.59,177.38,410.7,368.77c46.85,111.92,82.74,200.85,166.49,194.01
			c214.49-17.54,37.55-550.37,327.22-505.71c30.02,4.63,45.08,27.51,56.41,60.25c45.21,130.56-2.7,387.79,135.32,436.5
			c264.63,93.39,316.62-550.27,689.26-33.8"/>
		<path class="st21" d="M-1.19,246.14c255.1-48.84,329.15,171.4,411.26,360.33c47.8,109.99,83.88,197.2,167.18,189.96
			c213.12-18.52,40.9-544.26,329.7-499c29.83,4.67,44.85,27.35,56.47,59.63c46.8,129.96,2.08,383.19,139.01,430.91
			c264.94,92.33,310.05-549.18,681.76-41.73"/>
		<path class="st22" d="M-1.21,257.21c252.27-49.67,327.69,165.41,411.81,351.9c48.74,108.06,85.02,193.55,167.86,185.92
			c211.74-19.51,44.25-538.15,332.18-492.28c29.64,4.72,44.63,27.2,56.53,59.02c48.4,129.38,6.87,378.59,142.7,425.33
			c265.26,91.27,303.48-548.1,674.27-49.66"/>
		<path class="st23" d="M-1.22,268.28C248.22,217.78,325,427.69,411.15,611.74c49.68,106.13,86.16,189.91,168.55,181.88
			c210.37-20.5,47.59-532.04,334.66-485.57c29.45,4.77,44.41,27.04,56.59,58.41c50.03,128.8,11.66,373.98,146.39,419.75
			c265.59,90.21,296.91-547.02,666.78-57.6"/>
		<path class="st24" d="M-1.24,279.35c246.61-51.33,324.73,153.39,412.93,335.03c50.6,104.2,87.3,186.26,169.24,177.84
			c209-21.48,50.94-525.94,337.14-478.85c29.25,4.81,44.2,26.89,56.65,57.79c51.66,128.23,16.46,369.37,150.08,414.16
			c265.92,89.14,290.34-545.94,659.28-65.53"/>
		<path class="st25" d="M-1.26,290.42c243.78-52.16,323.22,147.37,413.48,326.59c51.5,102.26,88.44,182.61,169.93,173.79
			c207.63-22.46,54.29-519.84,339.61-472.14c29.06,4.86,43.99,26.73,56.71,57.18c53.32,127.66,21.26,364.75,153.77,408.58
			c266.26,88.06,283.78-544.85,651.79-73.46"/>
		<path class="st26" d="M-1.28,301.49c240.95-52.99,321.69,141.34,414.04,318.15c52.39,100.32,89.58,178.96,170.62,169.75
			c206.26-23.44,57.64-513.74,342.09-465.42c28.87,4.9,43.79,26.58,56.77,56.56c54.99,127.1,26.06,360.12,157.46,402.99
			c266.6,86.97,277.21-543.77,644.3-81.4"/>
		<path class="st27" d="M-1.29,312.56c238.12-53.82,320.14,135.31,414.59,309.72c53.27,98.37,90.71,175.31,171.31,165.71
			c204.88-24.42,60.99-507.64,344.57-458.71c28.68,4.95,43.6,26.42,56.83,55.95c56.68,126.55,30.87,355.49,161.15,397.41
			c266.94,85.88,270.64-542.69,636.8-89.33"/>
		<path class="st28" d="M-1.31,323.63c235.3-54.65,318.57,129.26,415.15,301.28c54.14,96.43,91.85,171.67,172,161.67
			c203.51-25.4,64.34-501.55,347.05-451.99c28.49,4.99,43.41,26.27,56.88,55.33c58.39,126,35.67,350.85,164.84,391.82
			c267.29,84.78,264.07-541.61,629.31-97.26"/>
		<path class="st29" d="M-1.33,334.7c232.47-55.48,316.98,123.21,415.71,292.85c54.99,94.49,92.99,168.02,172.69,157.62
			c202.14-26.38,67.69-495.46,349.53-445.28c28.3,5.04,43.23,26.11,56.94,54.72c60.12,125.45,40.49,346.2,168.53,386.24
			c267.65,83.68,257.5-540.53,621.82-105.2"/>
		<path class="st30" d="M-1.34,345.77c229.64-56.31,315.37,117.16,416.26,284.41c55.83,92.54,94.13,164.38,173.38,153.58
			C789.06,756.4,659.33,294.39,940.3,345.2c28.11,5.08,43.06,25.95,57,54.11c61.87,124.91,45.3,341.55,172.22,380.65
			c268.01,82.56,250.94-539.44,614.32-113.13"/>
		<path class="st31" d="M-1.36,356.84c226.81-57.14,313.73,111.09,416.82,275.98c56.65,90.6,95.27,160.73,174.07,149.54
			c199.39-28.33,74.39-483.28,354.49-431.85c27.91,5.13,42.89,25.79,57.06,53.49c63.63,124.37,50.12,336.89,175.91,375.07
			C1445.37,860.5,1421.35,240.7,1783.82,658"/>
		<path class="st32" d="M-1.38,367.91C222.6,309.93,310.69,472.94,416,635.45c57.45,88.66,96.41,157.09,174.76,145.49
			c198.02-29.3,77.73-477.2,356.97-425.13c27.72,5.17,42.73,25.63,57.12,52.88c65.42,123.83,54.94,332.23,179.6,369.48
			c268.75,80.31,237.8-537.28,599.34-129"/>
		<path class="st33" d="M-1.4,378.98c221.15-58.81,310.38,98.97,417.93,259.1c58.24,86.72,97.55,153.44,175.44,141.45
			c196.64-30.27,81.08-471.12,359.44-418.42c27.53,5.21,42.57,25.47,57.18,52.26c67.23,123.28,59.76,327.56,183.3,363.9
			c269.13,79.17,231.23-536.2,591.84-136.93"/>
		<path class="st34" d="M-1.41,390.05c218.32-59.64,308.67,92.9,418.49,250.67c59.02,84.78,98.69,149.8,176.13,137.41
			c195.27-31.24,84.43-465.04,361.92-411.7c27.34,5.25,42.42,25.31,57.24,51.65c69.06,122.74,64.59,322.88,186.99,358.31
			c269.51,78.02,224.66-535.11,584.35-144.86"/>
		<path class="st35" d="M-1.43,401.12c215.49-60.47,306.93,86.84,419.04,242.23c59.77,82.85,99.83,146.16,176.82,133.37
			c193.9-32.21,87.78-458.96,364.4-404.99c27.15,5.3,42.27,25.15,57.3,51.04c70.92,122.19,69.41,318.2,190.68,352.73
			c269.9,76.86,218.1-534.03,576.86-152.8"/>
		<path class="st36" d="M-1.45,412.19c212.66-61.3,305.16,80.78,419.6,233.8c60.51,80.92,100.97,142.52,177.51,129.32
			c192.52-33.18,91.13-452.89,366.88-398.28c26.96,5.34,42.13,24.98,57.36,50.42c72.79,121.64,74.24,313.51,194.37,347.14
			c270.29,75.69,211.53-532.95,569.36-160.73"/>
		<path class="st37" d="M-1.46,423.26c209.84-62.13,303.37,74.73,420.15,225.36c61.24,78.99,102.1,138.87,178.2,125.28
			c191.15-34.15,94.49-446.82,369.36-391.56c26.77,5.38,42,24.82,57.41,49.81c74.69,121.08,79.08,308.81,198.06,341.56
			c270.68,74.51,204.96-531.87,561.87-168.66"/>
		<path class="st38" d="M-1.48,434.33C205.53,371.37,300.07,503,419.23,651.25c61.95,77.07,103.24,135.23,178.89,121.24
			c189.78-35.11,97.84-440.76,371.84-384.85c26.58,5.42,41.87,24.65,57.47,49.19c76.6,120.51,83.91,304.11,201.75,335.98
			c271.09,73.32,198.39-530.79,554.38-176.59"/>
		<path class="st39" d="M-1.5,445.4c204.18-63.79,299.71,62.64,421.27,208.49c62.64,75.16,104.38,131.59,179.58,117.2
			c188.4-36.07,101.19-434.69,374.32-378.13c26.39,5.46,41.75,24.48,57.53,48.58c78.54,119.94,88.75,299.4,205.44,330.39
			c271.49,72.12,191.82-529.7,546.88-184.53"/>
		<path class="st40" d="M-1.52,456.47c201.35-64.62,297.83,56.61,421.82,200.05c63.32,73.25,105.52,127.95,180.27,113.15
			c187.03-37.03,104.54-428.63,376.79-371.42c26.19,5.5,41.63,24.3,57.59,47.96c80.51,119.35,93.59,294.68,209.13,324.81
			c271.9,70.9,185.26-528.62,539.39-192.46"/>
		<path class="st41" d="M-1.53,467.54c198.52-65.45,295.93,50.59,422.38,191.62c63.98,71.35,106.66,124.31,180.96,109.11
			c185.66-37.99,107.89-422.58,379.27-364.7c26,5.55,41.52,24.12,57.65,47.35c82.49,118.76,98.44,289.96,212.82,319.22
			c272.32,69.68,178.69-527.54,531.9-200.39"/>
		<path class="st42" d="M-1.55,478.61c195.69-66.28,294,44.59,422.94,183.18c64.62,69.46,107.8,120.68,181.65,105.07
			c184.28-38.95,111.25-416.52,381.75-357.99c25.81,5.59,41.41,23.95,57.71,46.74c84.5,118.15,103.28,285.23,216.51,313.64
			c272.74,68.44,172.12-526.46,524.4-208.33"/>
		<path class="st43" d="M-1.57,489.68c192.86-67.12,292.05,38.6,423.49,174.74C487.18,732,530.86,781.46,604.26,765.44
			c182.91-39.91,114.6-410.47,384.23-351.27c25.62,5.63,41.31,23.76,57.77,46.12c86.54,117.53,108.13,280.49,220.2,308.05
			c273.16,67.18,165.55-525.38,516.91-216.26"/>
		<path class="st44" d="M-1.58,500.75c190.03-67.95,290.06,32.64,424.05,166.31c65.87,65.71,110.08,113.4,183.02,96.98
			c181.54-40.86,117.95-404.42,386.71-344.56c25.43,5.66,41.21,23.58,57.83,45.51c88.59,116.9,112.98,275.75,223.89,302.47
			c273.59,65.92,158.98-524.29,509.42-224.19"/>
		<path class="st45" d="M-1.6,511.82c187.2-68.78,288.05,26.69,424.6,157.87c66.47,63.86,111.22,109.76,183.71,92.94
			c180.16-41.81,121.31-398.38,389.19-337.84c25.24,5.7,41.11,23.39,57.89,44.89c90.67,116.25,117.83,271,227.58,296.88
			c274.03,64.64,152.42-523.21,501.93-232.13"/>
		<path class="st46" d="M-1.62,522.89c184.38-69.61,286.01,20.77,425.16,149.44c67.06,62.01,112.36,106.13,184.4,88.9
			c178.79-42.76,124.66-392.34,391.67-331.13c25.05,5.74,41.02,23.2,57.94,44.28c92.77,115.58,122.68,266.24,231.27,291.3
			c274.46,63.34,145.85-522.13,494.43-240.06"/>
		<path class="st47" d="M-1.64,533.95c181.55-70.44,283.95,14.87,425.72,141c67.64,60.18,113.5,102.49,185.09,84.85
			c177.42-43.71,128.02-386.31,394.14-324.41c24.86,5.78,40.94,23,58,43.67c94.89,114.89,127.54,261.47,234.96,285.71
			c274.91,62.03,139.28-521.05,486.94-247.99"/>
		<path class="st48" d="M-1.65,545.02c178.72-71.27,281.86,9.01,426.27,132.56c68.2,58.36,114.64,98.86,185.78,80.81
			c176.05-44.66,131.38-380.27,396.62-317.7c24.67,5.82,40.85,22.8,58.06,43.05c97.04,114.18,132.4,256.7,238.65,280.13
			c275.35,60.7,132.71-519.96,479.45-255.93"/>
		<path class="st49" d="M-1.67,556.09c175.89-72.1,279.75,3.17,426.83,124.13c68.76,56.55,115.77,95.23,186.47,76.77
			c174.68-45.61,134.74-374.24,399.1-310.99c24.48,5.86,40.78,22.6,58.12,42.44c99.2,113.45,137.25,251.93,242.34,274.54
			c275.8,59.36,126.14-518.88,471.95-263.86"/>
		<path class="st50" d="M-1.69,567.16c173.06-72.93,277.62-2.64,427.38,115.69c69.3,54.76,116.91,91.59,187.16,72.73
			c173.31-46.55,138.1-368.22,401.58-304.27c24.29,5.89,40.7,22.4,58.18,41.82c101.39,112.69,142.11,247.14,246.03,268.96
			c276.26,58,119.58-517.8,464.46-271.79"/>
		<path class="st51" d="M-1.7,578.23c170.23-73.76,275.46-8.41,427.94,107.26c69.84,52.98,118.06,87.96,187.85,68.68
			c171.94-47.49,141.46-362.2,404.06-297.56c24.1,5.93,40.63,22.19,58.24,41.21c103.6,111.91,146.98,242.35,249.72,263.37
			c276.72,56.62,113.01-516.72,456.97-279.73"/>
		<path class="st52" d="M-1.72,589.3c167.4-74.59,273.29-14.15,428.5,98.82c70.36,51.22,119.2,84.33,188.54,64.64
			c170.57-48.43,144.82-356.18,406.54-290.84c23.91,5.97,40.56,21.97,58.3,40.59c105.83,111.11,151.84,237.55,253.41,257.79
			c277.18,55.22,106.44-515.64,449.47-287.66"/>
		<path class="st53" d="M-1.74,600.37c164.57-75.42,271.1-19.85,429.05,90.38c70.88,49.47,120.34,80.7,189.23,60.6
			c169.2-49.37,148.18-350.17,409.02-284.13c23.72,6,40.49,21.75,58.36,39.98c108.09,110.27,156.7,232.75,257.1,252.21
			c277.64,53.8,99.87-514.55,441.98-295.59"/>
		<path class="st54" d="M-1.76,611.44c161.74-76.26,268.89-25.51,429.61,81.95c71.4,47.74,121.48,77.07,189.92,56.56
			c167.83-50.31,151.54-344.16,411.49-277.41c23.53,6.04,40.43,21.53,58.41,39.37c110.36,109.41,161.57,227.94,260.79,246.62
			c278.11,52.36,93.3-513.47,434.49-303.53"/>
		<path class="st55" d="M-1.77,622.51c158.92-77.09,266.67-31.13,430.16,73.51c71.91,46.02,122.62,73.44,190.6,52.51
			c166.46-51.24,154.91-338.15,413.97-270.7c23.34,6.08,40.36,21.31,58.47,38.75c112.65,108.52,166.43,223.12,264.48,241.04
			c278.58,50.9,86.74-512.39,426.99-311.46"/>
		<path class="st56" d="M-1.79,633.58c156.09-77.92,264.43-36.71,430.72,65.08c72.41,44.33,123.76,69.81,191.29,48.47
			c165.1-52.17,158.27-332.15,416.45-263.98c23.15,6.11,40.3,21.08,58.53,38.14c114.96,107.59,171.3,218.3,268.17,235.45
			c279.06,49.42,80.17-511.31,419.5-319.39"/>
		<path class="st57" d="M-1.81,644.65c153.26-78.75,262.19-42.25,431.28,56.64c72.92,42.64,124.9,66.18,191.98,44.43
			c163.73-53.1,161.64-326.15,418.93-257.27c22.96,6.15,40.24,20.84,58.59,37.52c117.28,106.63,176.17,213.46,271.86,229.87
			c279.53,47.91,73.6-510.22,412.01-327.33"/>
		<path class="st58" d="M-1.82,655.72c150.43-79.58,259.93-47.74,431.83,48.2c73.42,40.98,126.04,62.56,192.67,40.38
			c162.36-54.03,165.01-320.16,421.41-250.55c22.77,6.18,40.19,20.6,58.65,36.91c119.63,105.64,181.03,208.63,275.55,224.28
			c280.01,46.38,67.03-509.14,404.51-335.26"/>
		<path class="st59" d="M-1.84,666.79c147.6-80.41,257.67-53.19,432.39,39.77c73.92,39.33,127.19,58.93,193.36,36.34
			c161-54.96,168.38-314.17,423.89-243.84c22.58,6.22,40.13,20.36,58.71,36.29c121.99,104.62,185.9,203.78,279.24,218.7
			c280.5,44.83,60.46-508.06,397.02-343.19"/>
		<path class="st60" d="M-1.86,677.86c144.77-81.24,255.41-58.59,432.95,31.33c74.43,37.7,128.33,55.31,194.05,32.3
			c159.64-55.88,171.75-308.19,426.37-237.12c22.39,6.25,40.07,20.11,58.77,35.68c124.36,103.56,190.77,198.93,282.93,213.11
			c280.98,43.25,53.9-506.98,389.53-351.12"/>
		<path class="st61" d="M-1.88,688.93c141.94-82.07,253.14-63.95,433.5,22.9c74.93,36.08,129.47,51.68,194.74,28.26
			c158.28-56.81,175.12-302.21,428.84-230.41c22.2,6.28,40.02,19.86,58.83,35.07c126.75,102.46,195.64,194.07,286.62,207.53
			c281.46,41.64,47.33-505.9,382.03-359.06"/>
		<path class="st62" d="M-1.89,700c139.11-82.9,250.88-69.26,434.06,14.46c75.44,34.48,130.62,48.06,195.43,24.21
			c156.91-57.73,178.5-296.24,431.32-223.7c22.01,6.32,39.96,19.61,58.89,34.45c129.15,101.32,200.51,189.2,290.31,201.94
			c281.95,40,40.76-504.81,374.54-366.99"/>
		<path class="st63" d="M-1.91,711.07c136.28-83.73,248.62-74.52,434.61,6.02c75.95,32.89,131.76,44.44,196.12,20.17
			C784.38,678.62,810.7,447,1062.62,520.29c21.82,6.35,39.91,19.35,58.94,33.84c131.56,100.15,205.38,184.33,294,196.36
			c282.44,38.33,34.19-503.73,367.05-374.92"/>
		<path class="st64" d="M-1.93,722.14c133.46-84.56,246.37-79.75,435.17-2.41c76.47,31.32,132.91,40.81,196.81,16.13
			c154.2-59.57,185.25-284.31,436.28-210.27c21.64,6.38,39.85,19.08,59,33.22c133.98,98.94,210.24,179.45,297.69,190.77
			c282.93,36.63,27.62-502.65,359.55-382.86"/>
		<path class="st65" d="M-1.94,733.21c130.63-85.4,244.12-84.92,435.73-10.85c77,29.77,134.05,37.19,197.5,12.09
			c152.84-60.48,188.64-278.35,438.76-203.55c21.45,6.41,39.8,18.81,59.06,32.61c136.42,97.69,215.11,174.57,301.38,185.19
			c283.42,34.9,21.06-501.57,352.06-390.79"/>
		<path class="st66" d="M-1.96,744.28c127.8-86.23,241.88-90.06,436.28-19.28c77.53,28.22,135.2,33.57,198.18,8.04
			c151.48-61.4,192.02-272.39,441.24-196.84c21.26,6.45,39.74,18.54,59.12,32c138.86,96.4,219.98,169.67,305.07,179.6
			c283.9,33.14,14.49-500.49,344.57-398.72"/>
		<path class="st67" d="M-1.98,755.35c124.97-87.06,239.66-95.15,436.84-27.72c78.07,26.7,136.35,29.95,198.87,4
			c150.13-62.31,195.4-266.44,443.72-190.12c21.07,6.48,39.68,18.26,59.18,31.38c141.3,95.07,224.84,164.77,308.76,174.02
			c284.39,31.34,7.92-499.4,337.08-406.66"/>
		<path class="st68" d="M-2,766.42c122.14-87.89,237.45-100.2,437.39-36.16c78.62,25.18,137.49,26.33,199.56-0.04
			c148.77-63.22,198.79-260.5,446.2-183.41c20.88,6.51,39.62,17.98,59.24,30.77c143.76,93.7,229.71,159.87,312.45,168.44
			c284.88,29.5,1.35-498.32,329.58-414.59"/>
		<path class="st69" d="M-2.01,777.49c119.31-88.72,235.26-105.21,437.95-44.59c79.18,23.68,138.64,22.72,200.25-4.08
			c147.42-64.13,202.18-254.56,448.67-176.69c20.7,6.54,39.56,17.7,59.3,30.15c146.21,92.29,234.57,154.95,316.14,162.85
			c285.36,27.62-5.22-497.24,322.09-422.52"/>
		<path class="st70" d="M-2.03,788.56c116.48-89.55,233.08-110.18,438.51-53.03c79.75,22.19,139.79,19.1,200.94-8.13
			c146.07-65.04,205.57-248.63,451.15-169.98c20.51,6.57,39.5,17.41,59.36,29.54C1296.6,677.8,1387.36,737,1467.76,744.23
			c285.85,25.71-11.78-496.16,314.6-430.46"/>
		<path class="st71" d="M-2.05,799.63c113.65-90.38,230.92-115.12,439.06-61.46c80.33,20.71,140.94,15.48,201.63-12.17
			c144.72-65.94,208.97-242.7,453.63-163.26c20.32,6.6,39.44,17.11,59.42,28.92c151.13,89.35,244.29,145.11,323.52,151.68
			c286.33,23.75-18.35-495.07,307.1-438.39"/>
		<path class="st72" d="M-2.06,810.7c110.82-91.21,228.79-120.02,439.62-69.9c80.92,19.24,142.09,11.87,202.32-16.21
			c143.38-66.84,212.37-236.78,456.11-156.55c20.13,6.63,39.37,16.82,59.47,28.31c153.59,87.82,249.15,140.18,327.21,146.1
			c286.8,21.75-24.92-493.99,299.61-446.32"/>
		<path class="st73" d="M-2.08,821.77c108-92.04,226.67-124.89,440.17-78.34c81.53,17.78,143.3,8.37,203.01-20.26
			c142.17-67.47,215.77-230.87,458.59-149.83c19.95,6.66,39.31,16.52,59.53,27.7c156.05,86.25,254,135.24,330.9,140.51
			c287.27,19.71-31.49-492.91,292.12-454.26"/>
		<path class="st74" d="M-2.1,832.84c105.17-92.87,224.58-129.73,440.73-86.77c82.14,16.32,144.44,4.73,203.7-24.3
			c140.8-68.42,219.17-224.96,461.07-143.12c19.76,6.69,39.24,16.21,59.59,27.08c158.51,84.64,258.85,130.29,334.59,134.93
			c287.74,17.61-38.06-491.83,284.62-462.19"/>
		<path class="st75" d="M-2.12,843.91c102.34-93.7,222.52-134.54,441.29-95.21c82.77,14.88,145.58,1.1,204.39-28.34
			c139.43-69.37,222.73-219.49,463.55-136.41c19.59,6.68,39.16,15.9,59.65,26.47c160.96,82.99,263.7,125.34,338.28,129.34
			c288.2,15.47-44.62-490.75,277.13-470.12"/>
		<path class="st76" d="M-2.13,854.98c99.51-94.54,220.48-139.32,441.84-103.64c83.42,13.45,146.72-2.54,205.08-32.38
			c138.07-70.32,226.09-213.46,466.02-129.69c19.4,6.72,39.09,15.59,59.71,25.85c163.41,81.31,268.55,120.38,341.97,123.76
			c288.65,13.28-51.19-489.66,269.64-478.06"/>
		<path class="st77" d="M-2.15,866.05c96.68-95.37,218.47-144.09,442.4-112.08c84.07,12.02,147.86-6.17,205.76-36.43
			c136.7-71.28,229.46-207.42,468.5-122.98c19.21,6.76,39.01,15.28,59.77,25.24c165.85,79.59,273.39,115.42,345.66,118.17
			c289.1,11.03-57.76-488.58,262.14-485.99"/>
		<path class="st6" d="M-2.17,877.12c93.85-96.2,216.48-148.83,442.95-120.52c300.32,37.54,343.49-314.22,737.26-132.11
			c853.33,394.67,206.67-373.33,604-381.33"/>
	</g>
</g>
</svg>
