<?xml version="1.0" encoding="UTF-8" standalone="no"?>
<!-- Generator: Adobe Illustrator 25.3.1, SVG Export Plug-In . SVG Version: 6.00 Build 0)  -->

<svg
   version="1.1"
   x="0px"
   y="0px"
   viewBox="0 0 1787.7701 804.42667"
   xml:space="preserve"
   id="svg197"
   sodipodi:docname="hero-image-name.svg"
   width="1787.77"
   height="804.4267"
   inkscape:version="1.4 (e7c3feb100, 2024-10-09)"
   xmlns:inkscape="http://www.inkscape.org/namespaces/inkscape"
   xmlns:sodipodi="http://sodipodi.sourceforge.net/DTD/sodipodi-0.dtd"
   xmlns="http://www.w3.org/2000/svg"
   xmlns:svg="http://www.w3.org/2000/svg"><defs
   id="defs197"><rect
     x="1005.5161"
     y="664.26178"
     width="133.70251"
     height="66.21476"
     id="rect197" /></defs><sodipodi:namedview
   id="namedview197"
   pagecolor="#ffffff"
   bordercolor="#000000"
   borderopacity="0.25"
   inkscape:showpageshadow="2"
   inkscape:pageopacity="0.0"
   inkscape:pagecheckerboard="0"
   inkscape:deskcolor="#d1d1d1"
   showgrid="false"
   inkscape:zoom="1.1240778"
   inkscape:cx="1039.074"
   inkscape:cy="622.28788"
   inkscape:window-width="3766"
   inkscape:window-height="2038"
   inkscape:window-x="0"
   inkscape:window-y="0"
   inkscape:window-maximized="0"
   inkscape:current-layer="svg197" />
<style
   type="text/css"
   id="style1">
	.st0{fill:url(#SVGID_1_);}
	.st1{fill:#1D1F25;}
	.st2{fill:#DFEBDD;}
	.st3{fill:#909098;}
	.st4{fill:#B8BABE;}
	.st5{opacity:0.97;}
	.st6{fill:none;stroke:#B0B2B2;stroke-width:0.25;stroke-miterlimit:10;}
	.st7{fill:none;stroke:#B0B2B2;stroke-width:0.75;stroke-miterlimit:10;}
	.st8{fill:none;stroke:#B0B2B2;stroke-width:0.743;stroke-miterlimit:10;}
	.st9{fill:none;stroke:#B0B2B2;stroke-width:0.7359;stroke-miterlimit:10;}
	.st10{fill:none;stroke:#B0B2B2;stroke-width:0.7289;stroke-miterlimit:10;}
	.st11{fill:none;stroke:#B0B2B2;stroke-width:0.7218;stroke-miterlimit:10;}
	.st12{fill:none;stroke:#B0B2B2;stroke-width:0.7148;stroke-miterlimit:10;}
	.st13{fill:none;stroke:#B0B2B2;stroke-width:0.7077;stroke-miterlimit:10;}
	.st14{fill:none;stroke:#B0B2B2;stroke-width:0.7007;stroke-miterlimit:10;}
	.st15{fill:none;stroke:#B0B2B2;stroke-width:0.6937;stroke-miterlimit:10;}
	.st16{fill:none;stroke:#B0B2B2;stroke-width:0.6866;stroke-miterlimit:10;}
	.st17{fill:none;stroke:#B0B2B2;stroke-width:0.6796;stroke-miterlimit:10;}
	.st18{fill:none;stroke:#B0B2B2;stroke-width:0.6725;stroke-miterlimit:10;}
	.st19{fill:none;stroke:#B0B2B2;stroke-width:0.6655;stroke-miterlimit:10;}
	.st20{fill:none;stroke:#B0B2B2;stroke-width:0.6585;stroke-miterlimit:10;}
	.st21{fill:none;stroke:#B0B2B2;stroke-width:0.6514;stroke-miterlimit:10;}
	.st22{fill:none;stroke:#B0B2B2;stroke-width:0.6444;stroke-miterlimit:10;}
	.st23{fill:none;stroke:#B0B2B2;stroke-width:0.6373;stroke-miterlimit:10;}
	.st24{fill:none;stroke:#B0B2B2;stroke-width:0.6303;stroke-miterlimit:10;}
	.st25{fill:none;stroke:#B0B2B2;stroke-width:0.6232;stroke-miterlimit:10;}
	.st26{fill:none;stroke:#B0B2B2;stroke-width:0.6162;stroke-miterlimit:10;}
	.st27{fill:none;stroke:#B0B2B2;stroke-width:0.6092;stroke-miterlimit:10;}
	.st28{fill:none;stroke:#B0B2B2;stroke-width:0.6021;stroke-miterlimit:10;}
	.st29{fill:none;stroke:#B0B2B2;stroke-width:0.5951;stroke-miterlimit:10;}
	.st30{fill:none;stroke:#B0B2B2;stroke-width:0.588;stroke-miterlimit:10;}
	.st31{fill:none;stroke:#B0B2B2;stroke-width:0.581;stroke-miterlimit:10;}
	.st32{fill:none;stroke:#B0B2B2;stroke-width:0.5739;stroke-miterlimit:10;}
	.st33{fill:none;stroke:#B0B2B2;stroke-width:0.5669;stroke-miterlimit:10;}
	.st34{fill:none;stroke:#B0B2B2;stroke-width:0.5599;stroke-miterlimit:10;}
	.st35{fill:none;stroke:#B0B2B2;stroke-width:0.5528;stroke-miterlimit:10;}
	.st36{fill:none;stroke:#B0B2B2;stroke-width:0.5458;stroke-miterlimit:10;}
	.st37{fill:none;stroke:#B0B2B2;stroke-width:0.5387;stroke-miterlimit:10;}
	.st38{fill:none;stroke:#B0B2B2;stroke-width:0.5317;stroke-miterlimit:10;}
	.st39{fill:none;stroke:#B0B2B2;stroke-width:0.5246;stroke-miterlimit:10;}
	.st40{fill:none;stroke:#B0B2B2;stroke-width:0.5176;stroke-miterlimit:10;}
	.st41{fill:none;stroke:#B0B2B2;stroke-width:0.5106;stroke-miterlimit:10;}
	.st42{fill:none;stroke:#B0B2B2;stroke-width:0.5035;stroke-miterlimit:10;}
	.st43{fill:none;stroke:#B0B2B2;stroke-width:0.4965;stroke-miterlimit:10;}
	.st44{fill:none;stroke:#B0B2B2;stroke-width:0.4894;stroke-miterlimit:10;}
	.st45{fill:none;stroke:#B0B2B2;stroke-width:0.4824;stroke-miterlimit:10;}
	.st46{fill:none;stroke:#B0B2B2;stroke-width:0.4754;stroke-miterlimit:10;}
	.st47{fill:none;stroke:#B0B2B2;stroke-width:0.4683;stroke-miterlimit:10;}
	.st48{fill:none;stroke:#B0B2B2;stroke-width:0.4613;stroke-miterlimit:10;}
	.st49{fill:none;stroke:#B0B2B2;stroke-width:0.4542;stroke-miterlimit:10;}
	.st50{fill:none;stroke:#B0B2B2;stroke-width:0.4472;stroke-miterlimit:10;}
	.st51{fill:none;stroke:#B0B2B2;stroke-width:0.4401;stroke-miterlimit:10;}
	.st52{fill:none;stroke:#B0B2B2;stroke-width:0.4331;stroke-miterlimit:10;}
	.st53{fill:none;stroke:#B0B2B2;stroke-width:0.4261;stroke-miterlimit:10;}
	.st54{fill:none;stroke:#B0B2B2;stroke-width:0.419;stroke-miterlimit:10;}
	.st55{fill:none;stroke:#B0B2B2;stroke-width:0.412;stroke-miterlimit:10;}
	.st56{fill:none;stroke:#B0B2B2;stroke-width:0.4049;stroke-miterlimit:10;}
	.st57{fill:none;stroke:#B0B2B2;stroke-width:0.3979;stroke-miterlimit:10;}
	.st58{fill:none;stroke:#B0B2B2;stroke-width:0.3908;stroke-miterlimit:10;}
	.st59{fill:none;stroke:#B0B2B2;stroke-width:0.3838;stroke-miterlimit:10;}
	.st60{fill:none;stroke:#B0B2B2;stroke-width:0.3768;stroke-miterlimit:10;}
	.st61{fill:none;stroke:#B0B2B2;stroke-width:0.3697;stroke-miterlimit:10;}
	.st62{fill:none;stroke:#B0B2B2;stroke-width:0.3627;stroke-miterlimit:10;}
	.st63{fill:none;stroke:#B0B2B2;stroke-width:0.3556;stroke-miterlimit:10;}
	.st64{fill:none;stroke:#B0B2B2;stroke-width:0.3486;stroke-miterlimit:10;}
	.st65{fill:none;stroke:#B0B2B2;stroke-width:0.3415;stroke-miterlimit:10;}
	.st66{fill:none;stroke:#B0B2B2;stroke-width:0.3345;stroke-miterlimit:10;}
	.st67{fill:none;stroke:#B0B2B2;stroke-width:0.3275;stroke-miterlimit:10;}
	.st68{fill:none;stroke:#B0B2B2;stroke-width:0.3204;stroke-miterlimit:10;}
	.st69{fill:none;stroke:#B0B2B2;stroke-width:0.3134;stroke-miterlimit:10;}
	.st70{fill:none;stroke:#B0B2B2;stroke-width:0.3063;stroke-miterlimit:10;}
	.st71{fill:none;stroke:#B0B2B2;stroke-width:0.2993;stroke-miterlimit:10;}
	.st72{fill:none;stroke:#B0B2B2;stroke-width:0.2923;stroke-miterlimit:10;}
	.st73{fill:none;stroke:#B0B2B2;stroke-width:0.2852;stroke-miterlimit:10;}
	.st74{fill:none;stroke:#B0B2B2;stroke-width:0.2782;stroke-miterlimit:10;}
	.st75{fill:none;stroke:#B0B2B2;stroke-width:0.2711;stroke-miterlimit:10;}
	.st76{fill:none;stroke:#B0B2B2;stroke-width:0.2641;stroke-miterlimit:10;}
	.st77{fill:none;stroke:#B0B2B2;stroke-width:0.257;stroke-miterlimit:10;}
</style>
<g
   id="Layer_1"
   sodipodi:insensitive="true"
   style="display:inline"
   transform="translate(5.8203793,-72.780533)">
	<linearGradient
   id="SVGID_1_"
   gradientUnits="userSpaceOnUse"
   x1="1748.8947"
   y1="56.151798"
   x2="55.561298"
   y2="878.81848"
   gradientTransform="matrix(1.0013333,0,0,0.85098412,-5.3197126,72.925202)">
		<stop
   offset="1.385225e-07"
   style="stop-color:#000000"
   id="stop1" />
		<stop
   offset="0.611"
   style="stop-color:#000B16"
   id="stop2" />
		<stop
   offset="1"
   style="stop-color:#001426"
   id="stop3" />
	</linearGradient>
	<rect
   x="-5.8203793"
   y="72.780533"
   class="st0"
   width="1787.3"
   height="804.4267"
   id="rect3"
   style="fill:url(#SVGID_1_);stroke-width:0.923103" />
	
	
</g>
<g
   id="Layer_2"
   sodipodi:insensitive="true"
   style="display:inline"
   transform="translate(5.8203793,-72.780533)">
	
	<g
   class="st5"
   id="g125"
   style="display:inline;opacity:1"
   sodipodi:insensitive="true">
		<path
   class="st6"
   d="m -4.62,136.5 c 244,-61.18 12.97,734.72 319.67,729.67 324,-5.33 183,-517 454,-480 130.32,17.79 234.09,229.81 330,317 220,200 602,50 681.9,-215.17"
   id="path55" />
		<path
   class="st6"
   d="m -4.49,146.92 c 240.56,-60.32 20.42,724.37 322.8,719.39 319.44,-5.26 186.65,-509.72 453.83,-473.24 128.48,17.54 234.79,226.57 329.35,312.54 216.9,197.18 600.7,49.3 679.47,-212.14"
   id="path56" />
		<path
   class="st6"
   d="m -4.35,157.35 c 237.13,-59.45 27.87,714.02 325.92,709.11 314.87,-5.18 190.3,-502.44 453.67,-466.48 126.65,17.29 235.49,223.34 328.69,308.07 213.8,194.37 599.4,48.59 677.04,-209.11"
   id="path57" />
		<path
   class="st6"
   d="m -4.22,167.77 c 233.69,-58.59 35.31,703.67 329.05,698.84 310.31,-5.11 193.95,-495.15 453.5,-459.72 124.81,17.04 236.18,220.1 328.04,303.61 210.7,191.55 598.09,47.89 674.62,-206.08"
   id="path58" />
		<path
   class="st6"
   d="M -4.09,178.2 C 226.16,120.47 38.67,871.52 328.09,866.76 633.84,861.73 525.69,378.89 781.42,413.8 904.4,430.59 1018.3,630.66 1108.81,712.94 1316.42,901.67 1705.6,760.12 1781,509.89"
   id="path59" />
		<path
   class="st6"
   d="M -3.96,188.62 C 222.86,131.75 46.25,871.59 331.35,866.9 632.53,861.94 532.6,386.31 784.51,420.7 c 121.14,16.54 237.58,213.62 326.74,294.68 204.51,185.92 595.49,46.48 669.76,-200.02"
   id="path60" />
		<path
   class="st6"
   d="m -3.83,199.04 c 223.38,-56.01 57.66,672.63 338.44,668 296.62,-4.88 204.9,-473.31 453,-439.44 119.3,16.3 238.27,210.4 326.08,290.22 201.41,183.1 594.19,45.77 667.34,-196.98"
   id="path61" />
		<path
   class="st6"
   d="M -3.7,209.47 C 216.24,154.32 61.41,871.75 337.87,867.2 629.93,862.39 546.42,401.17 790.7,434.52 c 117.47,16.04 238.98,207.15 325.43,285.75 198.31,180.28 592.89,45.07 664.91,-193.95"
   id="path62" />
		<path
   class="st6"
   d="m -3.56,219.89 c 216.51,-54.28 72.55,651.93 344.7,647.45 287.49,-4.73 212.2,-458.75 452.66,-425.92 115.64,15.79 239.67,203.91 324.78,281.28 195.21,177.46 591.59,44.37 662.48,-190.92"
   id="path63" />
		<path
   class="st6"
   d="m -3.43,230.32 c 213.07,-53.42 80,641.58 347.82,637.17 282.93,-4.66 215.85,-451.46 452.49,-419.15 113.8,15.54 240.37,200.68 324.12,276.82 192.11,174.65 590.28,43.66 660.05,-187.89"
   id="path64" />
		<path
   class="st6"
   d="m -3.3,240.74 c 209.63,-52.56 87.45,631.23 350.95,626.9 278.37,-4.58 219.49,-444.18 452.33,-412.39 111.97,15.29 241.07,197.44 323.47,272.35 189.01,171.83 588.98,42.96 657.63,-184.86"
   id="path65" />
		<path
   class="st6"
   d="m -3.17,251.17 c 206.2,-51.7 94.9,620.89 354.08,616.62 273.8,-4.51 223.14,-436.9 452.16,-405.63 110.13,15.04 241.77,194.2 322.82,267.89 185.92,169.01 587.68,42.25 655.2,-181.83"
   id="path66" />
		<path
   class="st6"
   d="M -3.04,261.59 C 199.72,210.75 99.31,872.13 354.17,867.93 623.41,863.5 580.96,438.31 806.16,469.06 c 108.29,14.79 242.47,190.97 322.17,263.42 182.82,166.2 586.38,41.55 652.77,-178.8"
   id="path67" />
		<path
   class="st6"
   d="m -2.91,272.02 c 199.32,-49.98 109.8,600.19 360.34,596.07 264.68,-4.36 230.44,-422.34 451.82,-392.11 106.46,14.53 243.16,187.73 321.51,258.96 179.72,163.38 585.08,40.85 650.34,-175.77"
   id="path68" />
		<path
   class="st6"
   d="m -2.78,282.44 c 195.89,-49.11 117.24,589.84 363.47,585.79 260.11,-4.28 234.09,-415.06 451.66,-385.35 104.62,14.28 243.86,184.49 320.86,254.49 176.62,160.56 583.77,40.14 647.92,-172.74"
   id="path69" />
		<path
   class="st6"
   d="m -2.64,292.87 c 192.45,-48.25 124.69,579.49 366.59,575.51 255.55,-4.21 237.74,-407.77 451.49,-378.59 102.79,14.03 244.56,181.26 320.21,250.03 173.52,157.75 582.47,39.44 645.49,-169.71"
   id="path70" />
		<path
   class="st6"
   d="M -2.51,303.29 C 186.5,255.9 129.63,872.44 367.21,868.53 618.2,864.4 608.6,468.04 818.53,496.7 c 100.95,13.78 245.26,178.02 319.55,245.56 170.42,154.93 581.17,38.73 643.06,-166.68"
   id="path71" />
		<path
   class="st6"
   d="m -2.38,313.72 c 185.58,-46.53 139.59,558.8 372.85,554.96 246.42,-4.06 245.04,-393.21 451.15,-365.07 99.12,13.53 245.96,174.78 318.9,241.1 167.32,152.11 579.87,38.03 640.64,-163.65"
   id="path72" />
		<path
   class="st6"
   d="m -2.25,324.14 c 182.14,-45.67 147.04,548.45 375.98,544.68 241.86,-3.98 248.69,-385.93 450.99,-358.31 97.28,13.28 246.65,171.55 318.25,236.63 164.23,149.3 578.57,37.32 638.21,-160.62"
   id="path73" />
		<path
   class="st6"
   d="m -2.12,334.56 c 178.7,-44.81 154.49,538.1 379.11,534.4 237.3,-3.91 252.34,-378.65 450.82,-351.55 95.45,13.03 247.35,168.31 317.6,232.17 161.13,146.48 577.27,36.62 635.78,-157.59"
   id="path74" />
		<path
   class="st6"
   d="m -1.99,344.99 c 175.27,-43.94 161.93,527.75 382.24,524.13 232.73,-3.83 255.99,-371.37 450.65,-344.79 93.61,12.78 248.05,165.07 316.94,227.7 158.03,143.66 575.96,35.92 633.35,-154.56"
   id="path75" />
		<path
   class="st6"
   d="m -1.86,355.41 c 171.83,-43.08 169.38,517.41 385.37,513.85 228.17,-3.76 259.64,-364.08 450.48,-338.03 91.77,12.53 248.75,161.84 316.29,223.24 154.93,140.85 574.66,35.21 630.93,-151.53"
   id="path76" />
		<path
   class="st6"
   d="m -1.72,365.84 c 168.39,-42.22 176.83,507.06 388.49,503.57 223.61,-3.68 263.29,-356.8 450.32,-331.27 89.94,12.28 249.45,158.6 315.64,218.77 151.83,138.03 573.36,34.51 628.5,-148.5"
   id="path77" />
		<path
   class="st6"
   d="m -1.59,376.26 c 164.96,-41.36 184.28,496.71 391.62,493.3 219.04,-3.61 266.94,-349.52 450.15,-324.51 88.1,12.03 250.14,155.36 314.99,214.31 148.73,135.21 572.06,33.8 626.07,-145.47"
   id="path78" />
		<path
   class="st6"
   d="m -1.46,386.69 c 161.52,-40.5 191.73,486.36 394.75,483.02 214.48,-3.53 270.59,-342.24 449.98,-317.75 86.27,11.78 250.84,152.13 314.33,209.85 145.63,132.39 570.76,33.1 623.65,-142.44"
   id="path79" />
		<path
   class="st6"
   d="m -1.33,397.11 c 158.08,-39.64 199.17,476.01 397.88,472.74 209.92,-3.46 274.24,-334.96 449.81,-310.99 84.43,11.53 251.54,148.89 313.68,205.38 142.54,129.58 569.45,32.39 621.22,-139.4"
   id="path80" />
		<path
   class="st6"
   d="M -1.2,407.54 C 153.45,368.76 205.42,873.2 399.81,870 605.16,866.62 677.7,542.32 849.46,565.77 c 82.6,11.28 252.24,145.65 313.03,200.92 139.44,126.76 568.15,31.69 618.79,-136.37"
   id="path81" />
		<path
   class="st6"
   d="M -1.07,417.96 C 150.14,380.05 213,873.28 403.07,870.15 603.86,866.84 684.61,549.76 852.55,572.69 c 80.76,11.03 252.94,142.42 312.37,196.45 136.34,123.94 566.85,30.99 616.36,-133.34"
   id="path82" />
		<path
   class="st6"
   d="m -0.94,428.39 c 147.77,-37.05 221.52,444.97 407.27,441.91 196.23,-3.23 285.18,-313.11 449.31,-290.7 78.93,10.78 253.63,139.18 311.72,191.99 133.24,121.13 565.55,30.28 613.94,-130.31"
   id="path83" />
		<path
   class="st6"
   d="m -0.8,438.81 c 144.34,-36.19 228.97,434.62 410.39,431.63 191.66,-3.15 288.83,-305.83 449.14,-283.94 77.09,10.53 254.33,135.94 311.07,187.52 130.14,118.31 564.25,29.58 611.51,-127.28"
   id="path84" />
		<path
   class="st6"
   d="m -0.67,449.24 c 140.9,-35.33 236.42,424.27 413.52,421.36 187.1,-3.08 292.48,-298.55 448.98,-277.18 75.26,10.27 255.03,132.71 310.42,183.06 127.04,115.49 562.95,28.87 609.08,-124.25"
   id="path85" />
		<path
   class="st6"
   d="m -0.54,459.66 c 137.46,-34.47 243.86,413.92 416.65,411.08 182.54,-3 296.13,-291.27 448.81,-270.42 73.42,10.02 255.73,129.47 309.76,178.59 123.94,112.68 561.64,28.17 606.66,-121.22"
   id="path86" />
		<path
   class="st6"
   d="m -0.41,470.08 c 134.03,-33.6 251.31,403.58 419.78,400.8 177.97,-2.93 299.78,-283.99 448.64,-263.66 71.58,9.77 256.43,126.23 309.11,174.13 120.85,109.86 560.34,27.46 604.23,-118.19"
   id="path87" />
		<path
   class="st6"
   d="m -0.28,480.51 c 130.59,-32.74 258.76,393.23 422.91,390.53 173.41,-2.85 303.43,-276.7 448.47,-256.9 69.75,9.52 257.12,123 308.46,169.66 117.75,107.04 559.04,26.76 601.8,-115.16"
   id="path88" />
		<path
   class="st6"
   d="M -0.15,490.93 C 127,459.05 266.06,873.81 425.89,871.18 594.74,868.4 732.97,601.76 874.2,621.04 c 67.91,9.27 257.82,119.76 307.8,165.2 114.65,104.23 557.74,26.06 599.37,-112.13"
   id="path89" />
		<path
   class="st6"
   d="m -0.02,501.36 c 123.72,-31.02 273.66,372.53 429.17,369.97 164.28,-2.7 310.73,-262.14 448.14,-243.38 66.08,9.02 258.52,116.52 307.15,160.73 111.55,101.41 556.44,25.35 596.95,-109.1"
   id="path90" />
		<path
   class="st6"
   d="m 0.12,511.78 c 120.28,-30.16 281.11,362.18 432.29,359.69 159.72,-2.63 314.38,-254.86 447.97,-236.62 64.24,8.77 259.22,113.29 306.5,156.27 108.45,98.59 555.13,24.65 594.52,-106.07"
   id="path91" />
		<path
   class="st6"
   d="m 0.25,522.21 c 116.85,-29.3 288.55,351.84 435.42,349.42 155.15,-2.55 318.03,-247.58 447.8,-229.86 62.41,8.52 259.92,110.05 305.85,151.8 105.35,95.77 553.83,23.94 592.09,-103.04"
   id="path92" />
		<path
   class="st6"
   d="m 0.38,532.63 c 113.41,-28.43 296,341.49 438.55,339.14 150.59,-2.48 321.68,-240.3 447.64,-223.1 60.57,8.27 260.61,106.81 305.19,147.34 102.25,92.96 552.53,23.24 589.67,-100.01"
   id="path93" />
		<path
   class="st6"
   d="m 0.51,543.06 c 109.97,-27.57 303.45,331.14 441.68,328.86 146.03,-2.4 325.33,-233.01 447.47,-216.34 58.74,8.02 261.31,103.58 304.54,142.87 99.15,90.14 551.23,22.54 587.24,-96.98"
   id="path94" />
		<path
   class="st6"
   d="m 0.64,553.48 c 106.54,-26.71 310.9,320.79 444.81,318.59 141.46,-2.33 328.98,-225.73 447.3,-209.58 56.9,7.77 262.01,100.34 303.89,138.41 96.06,87.32 549.93,21.83 584.81,-93.95"
   id="path95" />
		<path
   class="st6"
   d="m 0.77,563.91 c 103.1,-25.85 318.35,310.44 447.94,308.31 136.9,-2.25 332.63,-218.45 447.13,-202.82 55.06,7.52 262.71,97.1 303.23,133.94 92.96,84.51 548.62,21.13 582.38,-90.92"
   id="path96" />
		<path
   class="st6"
   d="m 0.9,574.33 c 99.66,-24.99 325.79,300.09 451.07,298.03 132.34,-2.18 336.28,-211.17 446.97,-196.06 53.23,7.27 263.41,93.87 302.58,129.48 89.86,81.69 547.32,20.42 579.96,-87.89"
   id="path97" />
		<path
   class="st6"
   d="m 1.04,584.75 c 96.23,-24.13 333.24,289.75 454.19,287.76 127.77,-2.1 339.93,-203.89 446.8,-189.3 51.39,7.02 264.1,90.63 301.93,125.01 86.76,78.87 546.02,19.72 577.53,-84.86"
   id="path98" />
		<path
   class="st6"
   d="m 1.17,595.18 c 92.79,-23.26 340.69,279.4 457.32,277.48 123.21,-2.03 343.58,-196.61 446.63,-182.54 49.56,6.77 264.8,87.39 301.28,120.55 83.66,76.06 544.72,19.01 575.1,-81.82"
   id="path99" />
		<path
   class="st6"
   d="m 1.3,605.6 c 89.35,-22.4 348.14,269.05 460.45,267.2 118.65,-1.95 347.23,-189.32 446.46,-175.77 47.72,6.52 265.5,84.16 300.62,116.08 80.56,73.24 543.42,18.31 572.68,-78.79"
   id="path100" />
		<path
   class="st6"
   d="m 1.43,616.03 c 85.92,-21.54 355.59,258.7 463.58,256.92 114.08,-1.88 350.87,-182.04 446.3,-169.01 45.89,6.27 266.2,80.92 299.97,111.62 77.46,70.42 542.12,17.61 570.25,-75.76"
   id="path101" />
		<path
   class="st6"
   d="M 1.56,626.45 C 84.04,605.77 364.6,874.81 468.27,873.1 577.79,871.3 822.79,698.34 914.4,710.85 c 44.05,6.01 266.9,77.68 299.32,107.15 74.37,67.61 540.81,16.9 567.82,-72.73"
   id="path102" />
		<path
   class="st6"
   d="m 1.69,636.88 c 79.04,-19.82 370.48,238.01 469.84,236.37 104.96,-1.73 358.17,-167.48 445.96,-155.49 42.22,5.76 267.6,74.45 298.66,102.69 71.27,64.79 539.51,16.2 565.39,-69.7"
   id="path103" />
		<path
   class="st6"
   d="m 1.82,647.3 c 75.61,-18.96 377.93,227.66 472.97,226.09 100.39,-1.65 361.82,-160.2 445.8,-148.73 40.38,5.51 268.29,71.21 298.01,98.23 68.17,61.97 538.21,15.49 562.97,-66.67"
   id="path104" />
		<path
   class="st6"
   d="m 1.96,657.73 c 72.17,-18.09 385.38,217.31 476.09,215.82 95.83,-1.58 365.47,-152.92 445.63,-141.97 38.55,5.26 268.99,67.97 297.36,93.76 65.07,59.15 536.91,14.79 560.54,-63.64"
   id="path105" />
		<path
   class="st6"
   d="m 2.09,668.15 c 68.73,-17.23 392.83,206.96 479.22,205.54 91.27,-1.5 369.12,-145.63 445.46,-135.21 36.71,5.01 269.69,64.73 296.71,89.3 61.97,56.34 535.61,14.08 558.11,-60.61"
   id="path106" />
		<path
   class="st6"
   d="m 2.22,678.58 c 65.3,-16.37 400.28,196.61 482.35,195.26 86.7,-1.43 372.77,-138.35 445.29,-128.45 34.87,4.76 270.39,61.5 296.05,84.83 58.87,53.52 534.3,13.38 555.69,-57.58"
   id="path107" />
		<path
   class="st6"
   d="m 2.35,689 c 61.86,-15.51 407.73,186.27 485.48,184.99 82.14,-1.35 376.42,-131.07 445.13,-121.69 33.04,4.51 271.09,58.26 295.4,80.37 55.77,50.7 533,12.68 553.26,-54.55"
   id="path108" />
		<path
   class="st6"
   d="m 2.48,699.43 c 58.42,-14.65 415.17,175.92 488.61,174.71 77.58,-1.28 380.07,-123.79 444.96,-114.93 31.2,4.26 271.78,55.02 294.75,75.9 52.68,47.89 531.7,11.97 550.83,-51.52"
   id="path109" />
		<path
   class="st6"
   d="m 2.61,709.85 c 54.99,-13.79 422.62,165.57 491.74,164.43 73.01,-1.2 383.72,-116.51 444.79,-108.17 29.37,4.01 272.48,51.79 294.1,71.44 49.58,45.07 530.4,11.27 548.4,-48.49"
   id="path110" />
		<path
   class="st6"
   d="m 2.75,720.27 c 51.55,-12.92 430.07,155.22 494.87,154.15 68.45,-1.13 387.37,-109.23 444.62,-101.41 27.53,3.76 273.18,48.55 293.44,66.97 46.48,42.25 529.1,10.56 545.98,-45.46"
   id="path111" />
		<path
   class="st6"
   d="m 2.88,730.7 c 48.11,-12.06 437.52,144.87 497.99,143.88 63.89,-1.05 391.02,-101.94 444.46,-94.65 25.7,3.51 273.88,45.31 292.79,62.51 43.38,39.44 527.8,9.86 543.55,-42.43"
   id="path112" />
		<path
   class="st6"
   d="m 3.01,741.12 c 44.68,-11.2 444.97,134.53 501.12,133.6 59.32,-0.98 394.67,-94.66 444.29,-87.89 23.86,3.26 274.58,42.08 292.14,58.04 40.28,36.62 526.49,9.15 541.12,-39.4"
   id="path113" />
		<path
   class="st6"
   d="m 3.14,751.55 c 41.24,-10.34 452.41,124.18 504.25,123.32 54.76,-0.9 398.32,-87.38 444.12,-81.13 22.03,3.01 275.27,38.84 291.48,53.58 37.18,33.8 525.19,8.45 538.7,-36.37"
   id="path114" />
		<path
   class="st6"
   d="m 3.27,761.97 c 37.8,-9.48 459.86,113.83 507.38,113.05 50.2,-0.83 401.97,-80.1 443.95,-74.37 20.19,2.76 275.97,35.6 290.83,49.11 34.08,30.99 523.89,7.75 536.27,-33.34"
   id="path115" />
		<path
   class="st6"
   d="m 3.4,772.4 c 34.37,-8.62 467.31,103.48 510.51,102.77 45.63,-0.75 405.62,-72.82 443.79,-67.61 18.35,2.51 276.67,32.37 290.18,44.65 30.99,28.17 522.59,7.04 533.84,-30.31"
   id="path116" />
		<path
   class="st6"
   d="m 3.53,782.82 c 30.93,-7.75 474.76,93.13 513.64,92.49 41.07,-0.68 409.27,-65.54 443.62,-60.85 16.52,2.26 277.37,29.13 289.53,40.18 27.89,25.35 521.29,6.34 531.41,-27.27"
   id="path117" />
		<path
   class="st6"
   d="m 3.67,793.25 c 27.49,-6.89 482.21,82.78 516.77,82.22 36.51,-0.6 412.92,-58.25 443.45,-54.08 14.68,2 278.07,25.89 288.87,35.72 24.79,22.54 519.98,5.63 528.99,-24.24"
   id="path118" />
		<path
   class="st6"
   d="m 3.8,803.67 c 24.06,-6.03 489.66,72.44 519.89,71.94 31.94,-0.53 416.57,-50.97 443.28,-47.32 12.85,1.75 278.76,22.66 288.22,31.25 21.69,19.72 518.68,4.93 526.56,-21.21"
   id="path119" />
		<path
   class="st6"
   d="m 3.93,814.1 c 20.62,-5.17 497.1,62.09 523.02,61.66 27.38,-0.45 420.21,-43.69 443.12,-40.56 11.01,1.5 279.46,19.42 287.57,26.79 18.59,16.9 517.38,4.23 524.13,-18.18"
   id="path120" />
		<path
   class="st6"
   d="m 4.06,824.52 c 17.18,-4.31 504.55,51.74 526.15,51.38 22.82,-0.38 423.86,-36.41 442.95,-33.8 9.18,1.25 280.16,16.18 286.91,22.32 15.49,14.08 516.08,3.52 521.71,-15.15"
   id="path121" />
		<path
   class="st6"
   d="m 4.19,834.95 c 13.75,-3.45 512,41.39 529.28,41.11 18.25,-0.3 427.51,-29.13 442.78,-27.04 7.34,1 280.86,12.95 286.26,17.86 12.39,11.27 514.78,2.82 519.28,-12.12"
   id="path122" />
		<path
   class="st6"
   d="m 4.32,845.37 c 10.31,-2.58 519.45,31.04 532.41,30.83 13.69,-0.23 431.16,-21.85 442.61,-20.28 5.51,0.75 281.56,9.71 285.61,13.39 9.3,8.45 513.48,2.11 516.85,-9.09"
   id="path123" />
		<path
   class="st6"
   d="m 4.45,855.79 c 6.87,-1.72 526.9,20.7 535.54,20.55 9.13,-0.15 434.81,-14.56 442.45,-13.52 3.67,0.5 282.25,6.47 284.96,8.93 6.2,5.63 512.17,1.41 514.42,-6.06"
   id="path124" />
		<path
   class="st6"
   d="m 4.59,866.22 c 3.44,-0.86 534.35,10.35 538.66,10.28 4.56,-0.08 438.46,-7.28 442.28,-6.76 1.84,0.25 282.95,3.24 284.3,4.46 3.1,2.82 510.87,0.7 512,-3.03"
   id="path125" />
		<line
   class="st6"
   x1="4.7199998"
   y1="876.64001"
   x2="1781.84"
   y2="876.64001"
   id="line125" />
	</g>
	<g
   id="g197"
   transform="translate(-3.5608715,-3.7886044)"
   style="display:inline;opacity:0.739"
   sodipodi:insensitive="true">
		<path
   class="st7"
   d="m -0.95,91.16 c 473.95,-59.83 324.03,729.69 561,725 232.28,-4.6 -6,-630 295,-593 149.95,18.43 -51.01,498.04 143,577.33 261,106.67 402,-564.33 786.67,69.33"
   id="path126" />
		<path
   class="st8"
   d="m -0.97,102.23 c 291.87,-38.03 346.89,248.17 404.03,470 34.68,134.65 69.05,244.7 158.22,242.52 230.92,-5.55 -2.64,-623.96 297.48,-586.29 32.32,4.04 48.23,29.49 55.71,67.62 27.17,138.58 -59.77,442.26 91.04,503.52 261.4,105.29 395.43,-563.25 779.17,61.4"
   id="path127" />
		<path
   class="st9"
   d="m -0.98,113.3 c 289.04,-38.86 345.59,242.35 404.58,461.57 35.73,132.79 70.19,241.06 158.91,238.48 229.55,-6.5 0.73,-617.93 299.96,-579.57 32.13,4.07 47.94,29.32 55.77,67 28.61,137.84 -55.12,437.95 94.73,497.93 261.5,104.67 388.86,-562.17 771.68,53.47"
   id="path128" />
		<path
   class="st10"
   d="m -1,124.37 c 286.22,-39.7 344.28,236.5 405.14,453.13 36.78,130.92 71.33,237.43 159.6,234.43 228.19,-7.46 4.09,-611.89 302.44,-572.86 31.94,4.11 47.66,29.14 55.82,66.39 30.06,137.12 -50.37,433.42 98.42,492.35 261.76,103.66 382.3,-561.09 764.19,45.53"
   id="path129" />
		<path
   class="st11"
   d="m -1.02,135.44 c 283.39,-40.53 342.96,230.64 405.7,444.69 37.82,129.04 72.48,233.79 160.28,230.39 226.82,-8.41 7.45,-605.85 304.91,-566.14 31.75,4.15 47.38,28.97 55.88,65.78 31.53,136.41 -45.62,428.88 102.11,486.76 262.02,102.65 375.73,-560 756.69,37.6"
   id="path130" />
		<path
   class="st12"
   d="m -1.04,146.51 c 280.56,-41.36 341.63,224.78 406.25,436.26 38.86,127.16 73.62,230.16 160.97,226.35 225.46,-9.36 10.82,-599.82 307.39,-559.43 31.56,4.19 47.1,28.8 55.94,65.16 33,135.71 -40.86,424.34 105.8,481.18 262.29,101.64 369.16,-558.92 749.2,29.67"
   id="path131" />
		<path
   class="st13"
   d="M -1.05,157.58 C 276.68,115.39 339.24,376.48 405.76,585.4 445.65,710.67 480.52,811.92 567.42,807.71 791.51,797.4 581.6,213.93 877.29,255 c 31.37,4.23 46.83,28.64 56,64.55 34.48,135.02 -36.11,419.79 109.49,475.59 262.57,100.62 362.59,-557.84 741.71,21.73"
   id="path132" />
		<path
   class="st14"
   d="m -1.07,168.65 c 274.9,-43.02 338.94,213 407.36,419.39 40.91,123.38 75.9,222.88 162.35,218.26 222.72,-11.27 17.45,-587.08 312.35,-546 31.17,4.34 46.56,28.47 56.06,63.93 35.98,134.35 -31.35,415.24 113.18,470.01 262.85,99.6 356.02,-556.76 734.21,13.8"
   id="path133" />
		<path
   class="st15"
   d="m -1.09,179.72 c 272.07,-43.85 337.58,207.1 407.92,410.95 41.92,121.48 77.04,219.25 163.04,214.22 221.36,-12.22 20.8,-580.96 314.83,-539.28 30.98,4.39 46.3,28.31 56.12,63.32 37.48,133.69 -26.58,410.68 116.87,464.42 263.13,98.58 349.46,-555.68 726.72,5.87"
   id="path134" />
		<path
   class="st16"
   d="m -1.1,190.79 c 269.24,-44.68 336.21,201.18 408.48,402.51 42.92,119.58 78.19,215.61 163.73,210.18 219.99,-13.17 24.15,-574.83 317.31,-532.57 30.79,4.44 46.05,28.15 56.18,62.71 39,133.04 -21.81,406.11 120.56,458.84 263.42,97.55 342.89,-554.59 719.23,-2.07"
   id="path135" />
		<path
   class="st17"
   d="m -1.12,201.86 c 266.41,-45.51 334.82,195.24 409.03,394.08 43.92,117.67 79.32,211.81 164.42,206.13 218.6,-14.57 27.5,-568.72 319.79,-525.85 30.59,4.49 45.8,27.99 56.24,62.09 40.53,132.4 -17.04,401.54 124.25,453.25 263.71,96.52 336.32,-553.51 711.73,-10"
   id="path136" />
		<path
   class="st18"
   d="m -1.14,212.93 c 263.58,-46.34 333.42,189.3 409.59,385.64 44.9,115.76 80.46,208.15 165.11,202.09 217.23,-15.56 30.85,-562.6 322.26,-519.14 30.4,4.53 45.55,27.83 56.3,61.48 42.08,131.78 -12.26,396.96 127.94,447.67 264.01,95.48 329.75,-552.43 704.24,-17.93"
   id="path137" />
		<path
   class="st19"
   d="m -1.16,224 c 260.76,-47.17 332.01,183.34 410.14,377.21 45.88,113.84 81.6,204.5 165.8,198.05 215.86,-16.55 34.2,-556.48 324.74,-512.42 30.21,4.58 45.31,27.67 56.35,60.86 43.64,131.16 -7.49,392.38 131.63,442.08 264.32,94.44 323.18,-551.35 696.75,-25.86"
   id="path138" />
		<path
   class="st20"
   d="m -1.17,235.07 c 257.93,-48 330.59,177.38 410.7,368.77 46.85,111.92 82.74,200.85 166.49,194.01 214.49,-17.54 37.55,-550.37 327.22,-505.71 30.02,4.63 45.08,27.51 56.41,60.25 45.21,130.56 -2.7,387.79 135.32,436.5 264.63,93.39 316.62,-550.27 689.26,-33.8"
   id="path139" />
		<path
   class="st21"
   d="m -1.19,246.14 c 255.1,-48.84 329.15,171.4 411.26,360.33 47.8,109.99 83.88,197.2 167.18,189.96 213.12,-18.52 40.9,-544.26 329.7,-499 29.83,4.67 44.85,27.35 56.47,59.63 46.8,129.96 2.08,383.19 139.01,430.91 264.94,92.33 310.05,-549.18 681.76,-41.73"
   id="path140" />
		<path
   class="st22"
   d="m -1.21,257.21 c 252.27,-49.67 327.69,165.41 411.81,351.9 48.74,108.06 85.02,193.55 167.86,185.92 211.74,-19.51 44.25,-538.15 332.18,-492.28 29.64,4.72 44.63,27.2 56.53,59.02 48.4,129.38 6.87,378.59 142.7,425.33 265.26,91.27 303.48,-548.1 674.27,-49.66"
   id="path141" />
		<path
   class="st23"
   d="m -1.22,268.28 c 249.44,-50.5 326.22,159.41 412.37,343.46 49.68,106.13 86.16,189.91 168.55,181.88 210.37,-20.5 47.59,-532.04 334.66,-485.57 29.45,4.77 44.41,27.04 56.59,58.41 50.03,128.8 11.66,373.98 146.39,419.75 265.59,90.21 296.91,-547.02 666.78,-57.6"
   id="path142" />
		<path
   class="st24"
   d="m -1.24,279.35 c 246.61,-51.33 324.73,153.39 412.93,335.03 50.6,104.2 87.3,186.26 169.24,177.84 209,-21.48 50.94,-525.94 337.14,-478.85 29.25,4.81 44.2,26.89 56.65,57.79 51.66,128.23 16.46,369.37 150.08,414.16 265.92,89.14 290.34,-545.94 659.28,-65.53"
   id="path143" />
		<path
   class="st25"
   d="m -1.26,290.42 c 243.78,-52.16 323.22,147.37 413.48,326.59 51.5,102.26 88.44,182.61 169.93,173.79 207.63,-22.46 54.29,-519.84 339.61,-472.14 29.06,4.86 43.99,26.73 56.71,57.18 53.32,127.66 21.26,364.75 153.77,408.58 266.26,88.06 283.78,-544.85 651.79,-73.46"
   id="path144" />
		<path
   class="st26"
   d="m -1.28,301.49 c 240.95,-52.99 321.69,141.34 414.04,318.15 52.39,100.32 89.58,178.96 170.62,169.75 206.26,-23.44 57.64,-513.74 342.09,-465.42 28.87,4.9 43.79,26.58 56.77,56.56 54.99,127.1 26.06,360.12 157.46,402.99 266.6,86.97 277.21,-543.77 644.3,-81.4"
   id="path145" />
		<path
   class="st27"
   d="m -1.29,312.56 c 238.12,-53.82 320.14,135.31 414.59,309.72 53.27,98.37 90.71,175.31 171.31,165.71 204.88,-24.42 60.99,-507.64 344.57,-458.71 28.68,4.95 43.6,26.42 56.83,55.95 56.68,126.55 30.87,355.49 161.15,397.41 266.94,85.88 270.64,-542.69 636.8,-89.33"
   id="path146" />
		<path
   class="st28"
   d="m -1.31,323.63 c 235.3,-54.65 318.57,129.26 415.15,301.28 54.14,96.43 91.85,171.67 172,161.67 203.51,-25.4 64.34,-501.55 347.05,-451.99 28.49,4.99 43.41,26.27 56.88,55.33 58.39,126 35.67,350.85 164.84,391.82 267.29,84.78 264.07,-541.61 629.31,-97.26"
   id="path147" />
		<path
   class="st29"
   d="m -1.33,334.7 c 232.47,-55.48 316.98,123.21 415.71,292.85 54.99,94.49 92.99,168.02 172.69,157.62 202.14,-26.38 67.69,-495.46 349.53,-445.28 28.3,5.04 43.23,26.11 56.94,54.72 60.12,125.45 40.49,346.2 168.53,386.24 267.65,83.68 257.5,-540.53 621.82,-105.2"
   id="path148" />
		<path
   class="st30"
   d="m -1.34,345.77 c 229.64,-56.31 315.37,117.16 416.26,284.41 55.83,92.54 94.13,164.38 173.38,153.58 200.76,-27.36 71.03,-489.37 352,-438.56 28.11,5.08 43.06,25.95 57,54.11 61.87,124.91 45.3,341.55 172.22,380.65 268.01,82.56 250.94,-539.44 614.32,-113.13"
   id="path149" />
		<path
   class="st31"
   d="m -1.36,356.84 c 226.81,-57.14 313.73,111.09 416.82,275.98 56.65,90.6 95.27,160.73 174.07,149.54 199.39,-28.33 74.39,-483.28 354.49,-431.85 27.91,5.13 42.89,25.79 57.06,53.49 63.63,124.37 50.12,336.89 175.91,375.07 C 1445.37,860.5 1421.35,240.7 1783.82,658"
   id="path150" />
		<path
   class="st32"
   d="M -1.38,367.91 C 222.6,309.93 310.69,472.94 416,635.45 c 57.45,88.66 96.41,157.09 174.76,145.49 198.02,-29.3 77.73,-477.2 356.97,-425.13 27.72,5.17 42.73,25.63 57.12,52.88 65.42,123.83 54.94,332.23 179.6,369.48 268.75,80.31 237.8,-537.28 599.34,-129"
   id="path151" />
		<path
   class="st33"
   d="m -1.4,378.98 c 221.15,-58.81 310.38,98.97 417.93,259.1 58.24,86.72 97.55,153.44 175.44,141.45 196.64,-30.27 81.08,-471.12 359.44,-418.42 27.53,5.21 42.57,25.47 57.18,52.26 67.23,123.28 59.76,327.56 183.3,363.9 269.13,79.17 231.23,-536.2 591.84,-136.93"
   id="path152" />
		<path
   class="st34"
   d="m -1.41,390.05 c 218.32,-59.64 308.67,92.9 418.49,250.67 59.02,84.78 98.69,149.8 176.13,137.41 195.27,-31.24 84.43,-465.04 361.92,-411.7 27.34,5.25 42.42,25.31 57.24,51.65 69.06,122.74 64.59,322.88 186.99,358.31 269.51,78.02 224.66,-535.11 584.35,-144.86"
   id="path153" />
		<path
   class="st35"
   d="m -1.43,401.12 c 215.49,-60.47 306.93,86.84 419.04,242.23 59.77,82.85 99.83,146.16 176.82,133.37 193.9,-32.21 87.78,-458.96 364.4,-404.99 27.15,5.3 42.27,25.15 57.3,51.04 70.92,122.19 69.41,318.2 190.68,352.73 269.9,76.86 218.1,-534.03 576.86,-152.8"
   id="path154" />
		<path
   class="st36"
   d="m -1.45,412.19 c 212.66,-61.3 305.16,80.78 419.6,233.8 60.51,80.92 100.97,142.52 177.51,129.32 192.52,-33.18 91.13,-452.89 366.88,-398.28 26.96,5.34 42.13,24.98 57.36,50.42 72.79,121.64 74.24,313.51 194.37,347.14 270.29,75.69 211.53,-532.95 569.36,-160.73"
   id="path155" />
		<path
   class="st37"
   d="m -1.46,423.26 c 209.84,-62.13 303.37,74.73 420.15,225.36 61.24,78.99 102.1,138.87 178.2,125.28 191.15,-34.15 94.49,-446.82 369.36,-391.56 26.77,5.38 42,24.82 57.41,49.81 74.69,121.08 79.08,308.81 198.06,341.56 270.68,74.51 204.96,-531.87 561.87,-168.66"
   id="path156" />
		<path
   class="st38"
   d="m -1.48,434.33 c 207.01,-62.96 301.55,68.67 420.71,216.92 61.95,77.07 103.24,135.23 178.89,121.24 189.78,-35.11 97.84,-440.76 371.84,-384.85 26.58,5.42 41.87,24.65 57.47,49.19 76.6,120.51 83.91,304.11 201.75,335.98 271.09,73.32 198.39,-530.79 554.38,-176.59"
   id="path157" />
		<path
   class="st39"
   d="m -1.5,445.4 c 204.18,-63.79 299.71,62.64 421.27,208.49 62.64,75.16 104.38,131.59 179.58,117.2 188.4,-36.07 101.19,-434.69 374.32,-378.13 26.39,5.46 41.75,24.48 57.53,48.58 78.54,119.94 88.75,299.4 205.44,330.39 271.49,72.12 191.82,-529.7 546.88,-184.53"
   id="path158" />
		<path
   class="st40"
   d="m -1.52,456.47 c 201.35,-64.62 297.83,56.61 421.82,200.05 63.32,73.25 105.52,127.95 180.27,113.15 187.03,-37.03 104.54,-428.63 376.79,-371.42 26.19,5.5 41.63,24.3 57.59,47.96 80.51,119.35 93.59,294.68 209.13,324.81 271.9,70.9 185.26,-528.62 539.39,-192.46"
   id="path159" />
		<path
   class="st41"
   d="m -1.53,467.54 c 198.52,-65.45 295.93,50.59 422.38,191.62 63.98,71.35 106.66,124.31 180.96,109.11 185.66,-37.99 107.89,-422.58 379.27,-364.7 26,5.55 41.52,24.12 57.65,47.35 82.49,118.76 98.44,289.96 212.82,319.22 272.32,69.68 178.69,-527.54 531.9,-200.39"
   id="path160" />
		<path
   class="st42"
   d="m -1.55,478.61 c 195.69,-66.28 294,44.59 422.94,183.18 64.62,69.46 107.8,120.68 181.65,105.07 184.28,-38.95 111.25,-416.52 381.75,-357.99 25.81,5.59 41.41,23.95 57.71,46.74 84.5,118.15 103.28,285.23 216.51,313.64 272.74,68.44 172.12,-526.46 524.4,-208.33"
   id="path161" />
		<path
   class="st43"
   d="m -1.57,489.68 c 192.86,-67.12 292.05,38.6 423.49,174.74 65.26,67.58 108.94,117.04 182.34,101.02 182.91,-39.91 114.6,-410.47 384.23,-351.27 25.62,5.63 41.31,23.76 57.77,46.12 86.54,117.53 108.13,280.49 220.2,308.05 273.16,67.18 165.55,-525.38 516.91,-216.26"
   id="path162" />
		<path
   class="st44"
   d="m -1.58,500.75 c 190.03,-67.95 290.06,32.64 424.05,166.31 65.87,65.71 110.08,113.4 183.02,96.98 181.54,-40.86 117.95,-404.42 386.71,-344.56 25.43,5.66 41.21,23.58 57.83,45.51 88.59,116.9 112.98,275.75 223.89,302.47 273.59,65.92 158.98,-524.29 509.42,-224.19"
   id="path163" />
		<path
   class="st45"
   d="m -1.6,511.82 c 187.2,-68.78 288.05,26.69 424.6,157.87 66.47,63.86 111.22,109.76 183.71,92.94 180.16,-41.81 121.31,-398.38 389.19,-337.84 25.24,5.7 41.11,23.39 57.89,44.89 90.67,116.25 117.83,271 227.58,296.88 274.03,64.64 152.42,-523.21 501.93,-232.13"
   id="path164" />
		<path
   class="st46"
   d="m -1.62,522.89 c 184.38,-69.61 286.01,20.77 425.16,149.44 67.06,62.01 112.36,106.13 184.4,88.9 178.79,-42.76 124.66,-392.34 391.67,-331.13 25.05,5.74 41.02,23.2 57.94,44.28 92.77,115.58 122.68,266.24 231.27,291.3 274.46,63.34 145.85,-522.13 494.43,-240.06"
   id="path165" />
		<path
   class="st47"
   d="m -1.64,533.95 c 181.55,-70.44 283.95,14.87 425.72,141 67.64,60.18 113.5,102.49 185.09,84.85 177.42,-43.71 128.02,-386.31 394.14,-324.41 24.86,5.78 40.94,23 58,43.67 94.89,114.89 127.54,261.47 234.96,285.71 274.91,62.03 139.28,-521.05 486.94,-247.99"
   id="path166" />
		<path
   class="st48"
   d="m -1.65,545.02 c 178.72,-71.27 281.86,9.01 426.27,132.56 68.2,58.36 114.64,98.86 185.78,80.81 176.05,-44.66 131.38,-380.27 396.62,-317.7 24.67,5.82 40.85,22.8 58.06,43.05 97.04,114.18 132.4,256.7 238.65,280.13 275.35,60.7 132.71,-519.96 479.45,-255.93"
   id="path167" />
		<path
   class="st49"
   d="m -1.67,556.09 c 175.89,-72.1 279.75,3.17 426.83,124.13 68.76,56.55 115.77,95.23 186.47,76.77 174.68,-45.61 134.74,-374.24 399.1,-310.99 24.48,5.86 40.78,22.6 58.12,42.44 99.2,113.45 137.25,251.93 242.34,274.54 275.8,59.36 126.14,-518.88 471.95,-263.86"
   id="path168" />
		<path
   class="st50"
   d="m -1.69,567.16 c 173.06,-72.93 277.62,-2.64 427.38,115.69 69.3,54.76 116.91,91.59 187.16,72.73 173.31,-46.55 138.1,-368.22 401.58,-304.27 24.29,5.89 40.7,22.4 58.18,41.82 101.39,112.69 142.11,247.14 246.03,268.96 276.26,58 119.58,-517.8 464.46,-271.79"
   id="path169" />
		<path
   class="st51"
   d="m -1.7,578.23 c 170.23,-73.76 275.46,-8.41 427.94,107.26 69.84,52.98 118.06,87.96 187.85,68.68 171.94,-47.49 141.46,-362.2 404.06,-297.56 24.1,5.93 40.63,22.19 58.24,41.21 103.6,111.91 146.98,242.35 249.72,263.37 276.72,56.62 113.01,-516.72 456.97,-279.73"
   id="path170" />
		<path
   class="st52"
   d="m -1.72,589.3 c 167.4,-74.59 273.29,-14.15 428.5,98.82 70.36,51.22 119.2,84.33 188.54,64.64 170.57,-48.43 144.82,-356.18 406.54,-290.84 23.91,5.97 40.56,21.97 58.3,40.59 105.83,111.11 151.84,237.55 253.41,257.79 277.18,55.22 106.44,-515.64 449.47,-287.66"
   id="path171" />
		<path
   class="st53"
   d="m -1.74,600.37 c 164.57,-75.42 271.1,-19.85 429.05,90.38 70.88,49.47 120.34,80.7 189.23,60.6 169.2,-49.37 148.18,-350.17 409.02,-284.13 23.72,6 40.49,21.75 58.36,39.98 108.09,110.27 156.7,232.75 257.1,252.21 277.64,53.8 99.87,-514.55 441.98,-295.59"
   id="path172" />
		<path
   class="st54"
   d="m -1.76,611.44 c 161.74,-76.26 268.89,-25.51 429.61,81.95 71.4,47.74 121.48,77.07 189.92,56.56 167.83,-50.31 151.54,-344.16 411.49,-277.41 23.53,6.04 40.43,21.53 58.41,39.37 110.36,109.41 161.57,227.94 260.79,246.62 278.11,52.36 93.3,-513.47 434.49,-303.53"
   id="path173" />
		<path
   class="st55"
   d="m -1.77,622.51 c 158.92,-77.09 266.67,-31.13 430.16,73.51 71.91,46.02 122.62,73.44 190.6,52.51 166.46,-51.24 154.91,-338.15 413.97,-270.7 23.34,6.08 40.36,21.31 58.47,38.75 112.65,108.52 166.43,223.12 264.48,241.04 278.58,50.9 86.74,-512.39 426.99,-311.46"
   id="path174" />
		<path
   class="st56"
   d="m -1.79,633.58 c 156.09,-77.92 264.43,-36.71 430.72,65.08 72.41,44.33 123.76,69.81 191.29,48.47 165.1,-52.17 158.27,-332.15 416.45,-263.98 23.15,6.11 40.3,21.08 58.53,38.14 114.96,107.59 171.3,218.3 268.17,235.45 279.06,49.42 80.17,-511.31 419.5,-319.39"
   id="path175" />
		<path
   class="st57"
   d="m -1.81,644.65 c 153.26,-78.75 262.19,-42.25 431.28,56.64 72.92,42.64 124.9,66.18 191.98,44.43 163.73,-53.1 161.64,-326.15 418.93,-257.27 22.96,6.15 40.24,20.84 58.59,37.52 117.28,106.63 176.17,213.46 271.86,229.87 279.53,47.91 73.6,-510.22 412.01,-327.33"
   id="path176" />
		<path
   class="st58"
   d="m -1.82,655.72 c 150.43,-79.58 259.93,-47.74 431.83,48.2 73.42,40.98 126.04,62.56 192.67,40.38 162.36,-54.03 165.01,-320.16 421.41,-250.55 22.77,6.18 40.19,20.6 58.65,36.91 119.63,105.64 181.03,208.63 275.55,224.28 280.01,46.38 67.03,-509.14 404.51,-335.26"
   id="path177" />
		<path
   class="st59"
   d="m -1.84,666.79 c 147.6,-80.41 257.67,-53.19 432.39,39.77 73.92,39.33 127.19,58.93 193.36,36.34 161,-54.96 168.38,-314.17 423.89,-243.84 22.58,6.22 40.13,20.36 58.71,36.29 121.99,104.62 185.9,203.78 279.24,218.7 280.5,44.83 60.46,-508.06 397.02,-343.19"
   id="path178" />
		<path
   class="st60"
   d="m -1.86,677.86 c 144.77,-81.24 255.41,-58.59 432.95,31.33 74.43,37.7 128.33,55.31 194.05,32.3 159.64,-55.88 171.75,-308.19 426.37,-237.12 22.39,6.25 40.07,20.11 58.77,35.68 124.36,103.56 190.77,198.93 282.93,213.11 280.98,43.25 53.9,-506.98 389.53,-351.12"
   id="path179" />
		<path
   class="st61"
   d="m -1.88,688.93 c 141.94,-82.07 253.14,-63.95 433.5,22.9 74.93,36.08 129.47,51.68 194.74,28.26 158.28,-56.81 175.12,-302.21 428.84,-230.41 22.2,6.28 40.02,19.86 58.83,35.07 126.75,102.46 195.64,194.07 286.62,207.53 281.46,41.64 47.33,-505.9 382.03,-359.06"
   id="path180" />
		<path
   class="st62"
   d="m -1.89,700 c 139.11,-82.9 250.88,-69.26 434.06,14.46 75.44,34.48 130.62,48.06 195.43,24.21 156.91,-57.73 178.5,-296.24 431.32,-223.7 22.01,6.32 39.96,19.61 58.89,34.45 129.15,101.32 200.51,189.2 290.31,201.94 281.95,40 40.76,-504.81 374.54,-366.99"
   id="path181" />
		<path
   class="st63"
   d="m -1.91,711.07 c 136.28,-83.73 248.62,-74.52 434.61,6.02 75.95,32.89 131.76,44.44 196.12,20.17 155.56,-58.64 181.88,-290.26 433.8,-216.97 21.82,6.35 39.91,19.35 58.94,33.84 131.56,100.15 205.38,184.33 294,196.36 282.44,38.33 34.19,-503.73 367.05,-374.92"
   id="path182" />
		<path
   class="st64"
   d="m -1.93,722.14 c 133.46,-84.56 246.37,-79.75 435.17,-2.41 76.47,31.32 132.91,40.81 196.81,16.13 154.2,-59.57 185.25,-284.31 436.28,-210.27 21.64,6.38 39.85,19.08 59,33.22 133.98,98.94 210.24,179.45 297.69,190.77 282.93,36.63 27.62,-502.65 359.55,-382.86"
   id="path183" />
		<path
   class="st65"
   d="m -1.94,733.21 c 130.63,-85.4 244.12,-84.92 435.73,-10.85 77,29.77 134.05,37.19 197.5,12.09 152.84,-60.48 188.64,-278.35 438.76,-203.55 21.45,6.41 39.8,18.81 59.06,32.61 136.42,97.69 215.11,174.57 301.38,185.19 283.42,34.9 21.06,-501.57 352.06,-390.79"
   id="path184" />
		<path
   class="st66"
   d="m -1.96,744.28 c 127.8,-86.23 241.88,-90.06 436.28,-19.28 77.53,28.22 135.2,33.57 198.18,8.04 151.48,-61.4 192.02,-272.39 441.24,-196.84 21.26,6.45 39.74,18.54 59.12,32 138.86,96.4 219.98,169.67 305.07,179.6 283.9,33.14 14.49,-500.49 344.57,-398.72"
   id="path185" />
		<path
   class="st67"
   d="m -1.98,755.35 c 124.97,-87.06 239.66,-95.15 436.84,-27.72 78.07,26.7 136.35,29.95 198.87,4 150.13,-62.31 195.4,-266.44 443.72,-190.12 21.07,6.48 39.68,18.26 59.18,31.38 141.3,95.07 224.84,164.77 308.76,174.02 284.39,31.34 7.92,-499.4 337.08,-406.66"
   id="path186" />
		<path
   class="st68"
   d="m -2,766.42 c 122.14,-87.89 237.45,-100.2 437.39,-36.16 78.62,25.18 137.49,26.33 199.56,-0.04 148.77,-63.22 198.79,-260.5 446.2,-183.41 20.88,6.51 39.62,17.98 59.24,30.77 143.76,93.7 229.71,159.87 312.45,168.44 284.88,29.5 1.35,-498.32 329.58,-414.59"
   id="path187" />
		<path
   class="st69"
   d="M -2.01,777.49 C 117.3,688.77 233.25,672.28 435.94,732.9 c 79.18,23.68 138.64,22.72 200.25,-4.08 147.42,-64.13 202.18,-254.56 448.67,-176.69 20.7,6.54 39.56,17.7 59.3,30.15 146.21,92.29 234.57,154.95 316.14,162.85 285.36,27.62 -5.22,-497.24 322.09,-422.52"
   id="path188" />
		<path
   class="st70"
   d="m -2.03,788.56 c 116.48,-89.55 233.08,-110.18 438.51,-53.03 79.75,22.19 139.79,19.1 200.94,-8.13 146.07,-65.04 205.57,-248.63 451.15,-169.98 20.51,6.57 39.5,17.41 59.36,29.54 148.67,90.84 239.43,150.04 319.83,157.27 285.85,25.71 -11.78,-496.16 314.6,-430.46"
   id="path189" />
		<path
   class="st71"
   d="M -2.05,799.63 C 111.6,709.25 228.87,684.51 437.01,738.17 517.34,758.88 577.95,753.65 638.64,726 783.36,660.06 847.61,483.3 1092.27,562.74 c 20.32,6.6 39.44,17.11 59.42,28.92 151.13,89.35 244.29,145.11 323.52,151.68 286.33,23.75 -18.35,-495.07 307.1,-438.39"
   id="path190" />
		<path
   class="st72"
   d="m -2.06,810.7 c 110.82,-91.21 228.79,-120.02 439.62,-69.9 80.92,19.24 142.09,11.87 202.32,-16.21 143.38,-66.84 212.37,-236.78 456.11,-156.55 20.13,6.63 39.37,16.82 59.47,28.31 153.59,87.82 249.15,140.18 327.21,146.1 286.8,21.75 -24.92,-493.99 299.61,-446.32"
   id="path191" />
		<path
   class="st73"
   d="m -2.08,821.77 c 108,-92.04 226.67,-124.89 440.17,-78.34 81.53,17.78 143.3,8.37 203.01,-20.26 142.17,-67.47 215.77,-230.87 458.59,-149.83 19.95,6.66 39.31,16.52 59.53,27.7 156.05,86.25 254,135.24 330.9,140.51 287.27,19.71 -31.49,-492.91 292.12,-454.26"
   id="path192" />
		<path
   class="st74"
   d="m -2.1,832.84 c 105.17,-92.87 224.58,-129.73 440.73,-86.77 82.14,16.32 144.44,4.73 203.7,-24.3 140.8,-68.42 219.17,-224.96 461.07,-143.12 19.76,6.69 39.24,16.21 59.59,27.08 158.51,84.64 258.85,130.29 334.59,134.93 287.74,17.61 -38.06,-491.83 284.62,-462.19"
   id="path193" />
		<path
   class="st75"
   d="m -2.12,843.91 c 102.34,-93.7 222.52,-134.54 441.29,-95.21 82.77,14.88 145.58,1.1 204.39,-28.34 139.43,-69.37 222.73,-219.49 463.55,-136.41 19.59,6.68 39.16,15.9 59.65,26.47 160.96,82.99 263.7,125.34 338.28,129.34 288.2,15.47 -44.62,-490.75 277.13,-470.12"
   id="path194" />
		<path
   class="st76"
   d="m -2.13,854.98 c 99.51,-94.54 220.48,-139.32 441.84,-103.64 83.42,13.45 146.72,-2.54 205.08,-32.38 138.07,-70.32 226.09,-213.46 466.02,-129.69 19.4,6.72 39.09,15.59 59.71,25.85 163.41,81.31 268.55,120.38 341.97,123.76 288.65,13.28 -51.19,-489.66 269.64,-478.06"
   id="path195" />
		<path
   class="st77"
   d="m -2.15,866.05 c 96.68,-95.37 218.47,-144.09 442.4,-112.08 84.07,12.02 147.86,-6.17 205.76,-36.43 136.7,-71.28 229.46,-207.42 468.5,-122.98 19.21,6.76 39.01,15.28 59.77,25.24 165.85,79.59 273.39,115.42 345.66,118.17 289.1,11.03 -57.76,-488.58 262.14,-485.99"
   id="path196" />
		<path
   class="st6"
   d="M -2.17,877.12 C 91.68,780.92 214.31,728.29 440.78,756.6 741.1,794.14 784.27,442.38 1178.04,624.49 c 853.33,394.67 206.67,-373.33 604,-381.33"
   id="path197" />
	</g>
</g>
<g
   inkscape:groupmode="layer"
   id="layer1"
   inkscape:label="Layer_3"
   transform="translate(5.8203793,-72.780533)"><text
     xml:space="preserve"
     style="font-size:198.18px;text-align:start;writing-mode:lr-tb;direction:ltr;text-anchor:start;fill:#ffffff;fill-opacity:1;stroke-width:10.6167"
     x="214.39792"
     y="526.52069"
     id="text197"><tspan
       id="tspan197"
       x="214.39792"
       y="526.52069"
       sodipodi:role="line"
       style="font-style:normal;font-variant:normal;font-weight:normal;font-stretch:normal;font-family:Serif;-inkscape-font-specification:Serif;fill:#ffffff;fill-opacity:1;stroke-width:10.6167">Jack Wiegman</tspan><tspan
       x="214.39792"
       y="774.24567"
       sodipodi:role="line"
       style="fill:#ffffff;fill-opacity:1;stroke-width:10.6167"
       id="tspan198" /></text><text
     xml:space="preserve"
     style="font-style:normal;font-variant:normal;font-weight:normal;font-stretch:normal;font-size:85.8011px;font-family:Serif;-inkscape-font-specification:Serif;text-align:start;writing-mode:lr-tb;direction:ltr;text-anchor:start;fill:#cbcef8;fill-opacity:1;stroke-width:3.67718;stroke-dasharray:none"
     x="711.69165"
     y="640.09686"
     id="text199"><tspan
       sodipodi:role="line"
       x="711.69165"
       y="640.09686"
       id="tspan200"
       style="font-style:normal;font-variant:normal;font-weight:normal;font-stretch:normal;font-family:FreeSerif;-inkscape-font-specification:FreeSerif;fill:#dadcfa;fill-opacity:1;stroke-width:3.67718">Portfolio</tspan></text></g></svg>
